<?xml version="1.0" standalone="no"?>
<!DOCTYPE svg PUBLIC "-//W3C//DTD SVG 1.1//EN" "http://www.w3.org/Graphics/SVG/1.1/DTD/svg11.dtd" >
<svg xmlns="http://www.w3.org/2000/svg">
<metadata>Generated by IcoMoon</metadata>
<defs>
<font id="icomoon" horiz-adv-x="1024">
<font-face units-per-em="1024" ascent="896" descent="-128" />
<missing-glyph horiz-adv-x="1024" />
<glyph unicode="&#x20;" d="" />
<glyph unicode="&#xe600;" glyph-name="yishoucang" horiz-adv-x="1065" d="M819.483-127.99c-13.411 0.5-25.9 3.989-36.966 9.816l0.471-0.226-249.765 124.879-251.682-124.882c-10.348-5.56-22.643-8.826-35.701-8.826-16.894 0-32.511 5.468-45.178 14.731l0.216-0.151c-19.426 14.633-31.855 37.656-31.855 63.582 0 4.678 0.405 9.262 1.181 13.718l-0.068-0.474 51.893 268.945-197.926 184.5c-14.905 15.231-24.102 36.1-24.102 59.117 0 7.66 1.019 15.081 2.928 22.137l-0.136-0.592c8.822 28.6 33.196 49.761 63.007 53.767l0.393 0.043 274.859 49.974 123.017 249.712c12.811 25.99 38.914 43.665 69.195 44.166l0.066 0.001c0.028 0 0.061 0 0.095 0 30.467 0 56.76-17.871 68.968-43.703l0.197-0.464 122.965-249.765 274.699-47.95c29.686-4.148 53.49-25.378 61.356-53.288l0.126-0.522c2.58-7.435 4.071-16.004 4.071-24.92 0-21.808-8.913-41.534-23.295-55.734l-0.008-0.008-197.873-186.471 49.975-268.945c0.798-4.185 1.255-8.999 1.255-13.919 0-25.754-12.508-48.587-31.78-62.755l-0.216-0.152c-11.679-9.558-26.763-15.351-43.2-15.351-0.34 0-0.68 0.002-1.019 0.007l0.051-0.001z" />
<glyph unicode="&#xe601;" glyph-name="yizan" d="M861.577 467.305h-223.037c86.425 319.186-59.547 335.487-59.547 335.487-61.867 0-49.042-48.918-53.716-57.076 0-156.096-165.796-278.407-165.796-278.407v-442.661c0-43.695 59.547-59.433 82.908-59.433h335.111c31.537 0 57.221 82.709 57.221 82.709 82.903 281.911 82.903 365.789 82.903 365.789 0.001 58.247-56.046 53.591-56.046 53.591v0 0zM267.943 467.159h-133.553c-27.581 0-28.006-27.090-28.006-27.090l27.581-446.441c0-28.416 28.464-28.416 28.464-28.416h115.593c24.081 0 23.865 18.798 23.865 18.798v449.296c0 34.287-33.945 33.854-33.945 33.854v0 0z" />
<glyph unicode="&#xe602;" glyph-name="dianzan" d="M884.876 472.857h-237.905c92.186 340.464-63.517 357.853-63.517 357.853-65.993 0-52.312-52.182-57.303-60.882 0-166.502-176.85-296.972-176.85-296.972v-472.172c0-46.608 63.517-63.394 88.433-63.394h357.452c33.641 0 61.036 88.224 61.036 88.224 88.434 300.706 88.434 390.177 88.434 390.177 0.001 62.128-59.781 57.164-59.781 57.164v0 0zM251.671 472.7h-142.457c-29.42 0-29.873-28.896-29.873-28.896l29.42-476.203c0-30.309 30.361-30.309 30.361-30.309h123.297c25.686 0 25.459 20.050 25.459 20.050v479.247c0 36.574-36.208 36.111-36.208 36.111v0 0zM251.671 472.7" />
<glyph unicode="&#xe603;" glyph-name="wenjian" d="M974.996 121.226h-925.992v554.408h857.088c38.111 0 69.042-30.931 69.042-69.042v-485.366h-0.138zM627.714 675.634c0 63.933-51.782 115.714-115.714 115.714h-462.996v-115.714h578.71M164.719 275.742v347.143h694.563v-347.143h-694.563zM974.996 47.903v449.602c0 31.897-25.96 57.857-57.857 57.857h-810.277c-31.897 0-57.857-25.96-57.857-57.857v-449.464c0-39.354 31.897-71.389 71.389-71.389h783.351c39.354-0.138 71.251 31.897 71.251 71.251z" />
<glyph unicode="&#xe604;" glyph-name="shangchuan-" d="M0 896v-1024h1024v1024h-1024zM913.5 248h-249.985v-196.107h-303.030v196.107h-249.985v541h803v-541zM291.414 472.189l220.586 278.17 220.586-278.17zM452.47 472.189h119.061v-282.027h-119.061z" />
<glyph unicode="&#xe605;" glyph-name="chongmingming" d="M551.385 107.835h-472.222c0 0 0 0 0 0-21.724 0-39.34 17.588-39.385 39.302v471.517c0.045 21.718 17.661 39.306 39.385 39.306 0 0 0 0 0 0h472.064c0.744 0.050 1.614 0.079 2.49 0.079 21.752 0 39.385-17.633 39.385-39.385s-17.633-39.385-39.385-39.385c-0.876 0-1.745 0.029-2.607 0.085l0.117-0.006h-432.679v-392.98h432.837c0.913 0.075 1.976 0.118 3.048 0.118 21.752 0 39.385-17.633 39.385-39.385s-17.633-39.385-39.385-39.385c-1.073 0-2.136 0.043-3.187 0.127l0.139-0.009zM236.623 422.124c-0.913 0.075-1.976 0.118-3.048 0.118-21.752 0-39.385-17.633-39.385-39.385s17.633-39.385 39.385-39.385c1.073 0 2.136 0.043 3.187 0.127l-0.139-0.009h235.993c0.744-0.050 1.614-0.079 2.49-0.079 21.752 0 39.385 17.633 39.385 39.385s-17.633 39.385-39.385 39.385c-0.876 0-1.745-0.029-2.607-0.085l0.117 0.006h-235.993zM866.068-49.388h-117.996v864.492h117.996c0.744-0.050 1.614-0.079 2.49-0.079 21.752 0 39.385 17.633 39.385 39.385s-17.633 39.385-39.385 39.385c-0.876 0-1.745-0.029-2.607-0.085l0.117 0.006h-314.683c-0.744 0.050-1.614 0.079-2.49 0.079-21.752 0-39.385-17.633-39.385-39.385s17.633-39.385 39.385-39.385c0.876 0 1.745 0.029 2.607 0.085l-0.117-0.006h118.075v-864.492h-118.154c-0.744 0.050-1.614 0.079-2.49 0.079-21.752 0-39.385-17.633-39.385-39.385s17.633-39.385 39.385-39.385c0.876 0 1.745 0.029 2.607 0.085l-0.117-0.006h314.762c0.744-0.050 1.614-0.079 2.49-0.079 21.752 0 39.385 17.633 39.385 39.385s-17.633 39.385-39.385 39.385c-0.876 0-1.745-0.029-2.607-0.085l0.117 0.006zM944.837 657.959h-78.769c-0.744 0.050-1.614 0.079-2.49 0.079-21.752 0-39.385-17.633-39.385-39.385s17.633-39.385 39.385-39.385c0.876 0 1.745 0.029 2.607 0.085l-0.117-0.006h39.385v-392.98h-39.385c-0.913 0.075-1.976 0.118-3.048 0.118-21.752 0-39.385-17.633-39.385-39.385s17.633-39.385 39.385-39.385c1.073 0 2.136 0.043 3.187 0.127l-0.139-0.009h78.769c21.662 0.045 39.216 17.571 39.306 39.219v471.679c-0.045 21.718-17.661 39.306-39.385 39.306 0 0 0 0 0 0v0z" />
<glyph unicode="&#xe606;" glyph-name="tiaoseban" d="M182.4 46c-11.4 0-20.6 9.2-20.6 20.6s9.2 20.6 20.6 20.6c11.4 0 20.6-9.2 20.6-20.6s-9.2-20.6-20.6-20.6zM182.4 73.2c-3.6 0-6.6-3-6.6-6.6s3-6.6 6.6-6.6 6.6 3 6.6 6.6-3 6.6-6.6 6.6zM797.6 402.4c0-2.32 1.88-4.2 4.2-4.2s4.2 1.88 4.2 4.2v0c0 2.32-1.88 4.2-4.2 4.2s-4.2-1.88-4.2-4.2v0zM801.8 779.8c0-2.32 1.88-4.2 4.2-4.2s4.2 1.88 4.2 4.2v0c0 2.32-1.88 4.2-4.2 4.2s-4.2-1.88-4.2-4.2v0zM141.2 614.2c0-2.32 1.88-4.2 4.2-4.2s4.2 1.88 4.2 4.2v0c0 2.32-1.88 4.2-4.2 4.2s-4.2-1.88-4.2-4.2v0zM767.6 792c0-3.424 2.776-6.2 6.2-6.2s6.2 2.776 6.2 6.2v0c0 3.424-2.776 6.2-6.2 6.2s-6.2-2.776-6.2-6.2v0zM838.2 433c-13.2 0-23.8 10.6-23.8 23.8s10.6 23.8 23.8 23.8 23.8-10.6 23.8-23.8c0-13.2-10.6-23.8-23.8-23.8zM838.2 466.6c-5.4 0-9.8-4.4-9.8-9.8s4.4-9.8 9.8-9.8 9.8 4.4 9.8 9.8-4.4 9.8-9.8 9.8zM936.4 106.4h-7v7c0 3.8-3.2 7-7 7s-7-3.2-7-7v-7h-7c-3.8 0-7-3.2-7-7s3.2-7 7-7h7v-7c0-3.8 3.2-7 7-7s7 3.2 7 7v7h7c3.8 0 7 3.2 7 7s-3.2 7-7 7zM887.4 236.8h-0.4c-89.8 0-162.8 72.8-162.8 162.8s72.8 162.8 162.8 162.8h0.4c15.6 0 26 16.4 18.6 30.2-69.4 130-206.8 218.4-364.6 217.6-226.6-1.2-408.6-184-408.6-410.6 0-226.8 183.8-410.6 410.6-410.6 157 0 293.2 88 362.4 217.4 7.4 13.8-2.6 30.6-18.4 30.4zM631.6 106.8c-32.4 0-58.8 26.4-58.8 58.8s26.4 58.8 58.8 58.8 58.8-26.4 58.8-58.8-26.4-58.8-58.8-58.8zM887.4 236.8h-0.4c-89.8 0-162.8 72.8-162.8 162.8s72.8 162.8 162.8 162.8h0.4c15.6 0 26 16.4 18.6 30.2-69.4 130-206.8 218.4-364.6 217.6-8.6 0-17.2-0.4-25.8-1 145-9.8 269.4-95 334.4-216.6 7.4-13.8-3-30.4-18.6-30.2h-0.4c-89.8 0-148.8-72.8-148.8-162.8s58.8-162.8 148.8-162.8h0.4c15.8 0 26-16.6 18.4-30.6-65-121.6-189.2-206.6-334.2-216.4 9.2-0.6 18.4-1 27.8-1 157 0 293.2 88 362.4 217.4 7.4 14-2.6 30.8-18.4 30.6zM173.4 399.6c0 218.8 179.6 397 395.4 410-9 0.6-18.2 0.8-27.4 0.8-226.6-1.2-408.6-184-408.6-410.6 0-226.8 183.8-410.6 410.6-410.6 8.6 0 17 0.2 25.4 0.8-215 12.8-395.4 191.2-395.4 409.6zM250 768.4h-7v7c0 3.8-3.2 7-7 7s-7-3.2-7-7v-7h-7c-3.8 0-7-3.2-7-7s3.2-7 7-7h7v-7c0-3.8 3.2-7 7-7s7 3.2 7 7v7h7c3.8 0 7 3.2 7 7s-3.2 7-7 7zM855 45.2c0-2.32 1.88-4.2 4.2-4.2s4.2 1.88 4.2 4.2v0c0 2.32-1.88 4.2-4.2 4.2s-4.2-1.88-4.2-4.2v0zM543.4-23.2c-79.6 0-157.4 22.2-224.6 64.4-65.4 41-118.4 99.2-153 168-3 6-0.6 13.2 5.4 16.2s13.2 0.6 16.2-5.4c32.8-64.8 82.6-119.6 144.4-158.4 63.4-39.8 136.6-60.8 211.8-60.8 147.4 0 282.2 80.8 351.8 211 2.2 4 0.6 7.4-0.2 8.8-0.8 1.2-3 4.2-7.6 4.2h-0.4c-96.4 0-174.8 78.4-174.8 174.8 0 6.6 5.4 12 12 12s12-5.4 12-12c0-83.2 67.6-150.8 150.8-150.8h0.4c11.6 0 22.2-6 28.2-15.8 6-10 6.2-22 0.8-32.4-74-138-217-223.8-373.2-223.8zM631.6 92.2c-40.6 0-73.6 33-73.6 73.6s33 73.6 73.6 73.6 73.6-33 73.6-73.6-33-73.6-73.6-73.6zM631.6 215.4c-27.4 0-49.6-22.2-49.6-49.6s22.2-49.6 49.6-49.6 49.6 22.2 49.6 49.6-22.2 49.6-49.6 49.6zM164.4 228.8c-4.6 0-9.2 2.8-11 7.4-8 19-14.4 38.6-19.6 58.4-1.6 6.4 2.2 13 8.6 14.6s13-2.2 14.6-8.6c4.8-18.8 11-37.2 18.4-55.2 2.6-6.2-0.4-13.2-6.4-15.6-1.4-0.8-3-1-4.6-1zM139.6 312.6c-5.6 0-10.6 4-11.8 9.8-5 25.8-7 48.2-7 77.2 0 112.8 43.6 218.8 122.8 298.2 79.2 79.6 185 123.8 297.8 124.4h2.2c156.4 0 299.2-85.6 373-224 5.4-10 5.2-22-0.8-31.8-6-10-16.6-16-28.4-16h-0.4c-67.4 0-127-45.4-145.2-110.2-1.8-6.4-8.4-10.2-14.8-8.4s-10.2 8.4-8.4 14.8c21 75.2 90.2 127.8 168.4 127.8h0.4c3.2 0 6.2 1.6 7.8 4.4 0.8 1.6 2.2 4.6 0.2 8.2-69.6 130.4-204.4 211.2-352 211.2h-2c-106.4-0.6-206.2-42.2-280.8-117.2s-115.8-175-115.8-281.4c0-27.6 2-48.6 6.6-72.8 1.2-6.6-3-12.8-9.4-14-0.8-0.2-1.6-0.2-2.4-0.2zM360.4 604c0-46.502 26.952-84.2 60.2-84.2s60.2 37.698 60.2 84.2v0c0 46.502-26.952 84.2-60.2 84.2s-60.2-37.698-60.2-84.2v0zM315.8 604c0-46.502 26.952-84.2 60.2-84.2s60.2 37.698 60.2 84.2v0c0 46.502-26.952 84.2-60.2 84.2s-60.2-37.698-60.2-84.2v0zM342.61 603.023c0.93-46.493 23.528-83.746 50.474-83.207s48.036 38.666 47.106 85.159v0c-0.93 46.493-23.528 83.746-50.474 83.207s-48.036-38.666-47.106-85.159v0zM601.2 647.8c0-46.502 26.952-84.2 60.2-84.2s60.2 37.698 60.2 84.2v0c0 46.502-26.952 84.2-60.2 84.2s-60.2-37.698-60.2-84.2v0zM556.4 647.8c0-46.502 26.952-84.2 60.2-84.2s60.2 37.698 60.2 84.2v0c0 46.502-26.952 84.2-60.2 84.2s-60.2-37.698-60.2-84.2v0zM583.4 647.8c0-46.502 21.849-84.2 48.8-84.2s48.8 37.698 48.8 84.2v0c0 46.502-21.849 84.2-48.8 84.2s-48.8-37.698-48.8-84.2v0zM253.8 384c0-46.502 26.952-84.2 60.2-84.2s60.2 37.698 60.2 84.2v0c0 46.502-26.952 84.2-60.2 84.2s-60.2-37.698-60.2-84.2v0zM209.2 384c0-46.502 26.952-84.2 60.2-84.2s60.2 37.698 60.2 84.2v0c0 46.502-26.952 84.2-60.2 84.2s-60.2-37.698-60.2-84.2v0zM236 384c0-46.502 21.849-84.2 48.8-84.2s48.8 37.698 48.8 84.2v0c0 46.502-21.849 84.2-48.8 84.2s-48.8-37.698-48.8-84.2v0zM358.6 180.4c0-46.502 26.952-84.2 60.2-84.2s60.2 37.698 60.2 84.2v0c0 46.502-26.952 84.2-60.2 84.2s-60.2-37.698-60.2-84.2v0zM314 180.4c0-46.502 26.952-84.2 60.2-84.2s60.2 37.698 60.2 84.2v0c0 46.502-26.952 84.2-60.2 84.2s-60.2-37.698-60.2-84.2v0zM340.8 180.4c0-46.502 21.849-84.2 48.8-84.2s48.8 37.698 48.8 84.2v0c0 46.502-21.849 84.2-48.8 84.2s-48.8-37.698-48.8-84.2v0zM396.6 507.8c-53 0-96.2 43.2-96.2 96.2s43.2 96.2 96.2 96.2 96.2-43.2 96.2-96.2-43.2-96.2-96.2-96.2zM396.6 676.2c-39.8 0-72.2-32.4-72.2-72.2s32.4-72.2 72.2-72.2 72.2 32.4 72.2 72.2c0 39.8-32.4 72.2-72.2 72.2zM639 551.6c-53 0-96.2 43.2-96.2 96.2s43.2 96.2 96.2 96.2 96.2-43.2 96.2-96.2-43.2-96.2-96.2-96.2zM639 720c-39.8 0-72.2-32.4-72.2-72.2s32.4-72.2 72.2-72.2 72.2 32.4 72.2 72.2-32.4 72.2-72.2 72.2zM291.6 287.8c-53 0-96.2 43.2-96.2 96.2s43.2 96.2 96.2 96.2 96.2-43.2 96.2-96.2-43.2-96.2-96.2-96.2zM291.6 456.2c-39.8 0-72.2-32.4-72.2-72.2s32.4-72.2 72.2-72.2 72.2 32.4 72.2 72.2-32.4 72.2-72.2 72.2zM396.6 84.2c-53 0-96.2 43.2-96.2 96.2s43.2 96.2 96.2 96.2 96.2-43.2 96.2-96.2-43.2-96.2-96.2-96.2zM396.6 252.6c-39.8 0-72.2-32.4-72.2-72.2s32.4-72.2 72.2-72.2 72.2 32.4 72.2 72.2-32.4 72.2-72.2 72.2z" />
<glyph unicode="&#xe607;" glyph-name="yidong" d="M895.8 303.9c0-17.728 14.416-32.1 32.2-32.1s32.2 14.372 32.2 32.1v0c0 17.728-14.416 32.1-32.2 32.1s-32.2-14.372-32.2-32.1v0zM928 208.1c-17.8 0-32.2-14.4-32.2-32.1v-80.7c0-35.3-28.7-64-64-64h-639.3c-35.3 0-64 28.7-64 64v575.7c0 35.3 28.7 64 64 64h222.5l82.7-143.3c6.6-11.4 19.2-17.2 31.5-15.8h302.5c35.3 0 64-28.7 64-64v-80c0-17.7 14.4-32.1 32.2-32.1s32.2 14.4 32.2 32.1c0 0.8 0 1.6-0.1 2.4v77.5c0 70.7-57.3 128-128 128h-288.1l-82.5 142.9c-7.4 12.9-18 16.2-27.3 16l-0.1 0.1h-241.9c-70.7 0-128-57.3-128-128v-574.1c0-70.7 57.3-128 128-128h640c70.7 0 128 57.3 128 128v76.9c0.1 0.8 0.1 1.6 0.1 2.4 0 17.7-14.4 32.1-32.2 32.1zM576.7 129.7c12.5-12.5 32.9-12.5 45.4 0l135.4 135.3c0.3 0.3 0.6 0.5 0.9 0.8h0.1l0.7 0.7c12.3 12.3 12.3 32.4 0 44.7l-136 136c-12.4 12.4-32.5 12.4-44.8 0.1l-0.7-0.7c-12.3-12.3-12.3-32.4 0-44.7l82-82h-372c-17.3 0-31.5-14.2-31.5-31.5s14.2-31.5 31.5-31.5h370.8l-81.7-81.8c-12.6-12.5-12.6-32.9-0.1-45.4z" />
<glyph unicode="&#xe608;" glyph-name="xinjian" d="M835.736 342.625h-283.282v-283.282h-80.938v283.282h-283.281v80.934h283.282v283.286h80.938v-283.286h283.282v-80.934z" />
<glyph unicode="&#xe609;" glyph-name="gengduo" d="M431.998 384c0-44.184 35.818-80.002 80.002-80.002s80.002 35.818 80.002 80.002v0c0 44.184-35.818 80.002-80.002 80.002s-80.002-35.818-80.002-80.002v0zM431.998 655.998c0-44.184 35.818-80.002 80.002-80.002s80.002 35.818 80.002 80.002v0c0 44.184-35.818 80.002-80.002 80.002s-80.002-35.818-80.002-80.002v0zM431.998 111.999c0-44.184 35.818-80.002 80.002-80.002s80.002 35.818 80.002 80.002v0c0 44.184-35.818 80.002-80.002 80.002s-80.002-35.818-80.002-80.002v0z" />
<glyph unicode="&#xe60a;" glyph-name="am-start" d="M236 183.2c-26.4 0-52.8-11.2-71.2-29.6s-29.6-44.8-29.6-71.2c0-26.4 11.2-52.8 29.6-71.2s44.8-29.6 71.2-29.6c26.4 0 52.8 11.2 71.2 29.6s29.6 44.8 29.6 71.2c0 26.4-11.2 52.8-29.6 71.2-19.2 19.2-44.8 29.6-71.2 29.6zM776 672.8c0-27.835 22.565-50.4 50.4-50.4s50.4 22.565 50.4 50.4c0 27.835-22.565 50.4-50.4 50.4s-50.4-22.565-50.4-50.4zM236 773.6c-26.4 0-52.8-11.2-71.2-29.6s-29.6-44.8-29.6-71.2c0-26.4 11.2-52.8 29.6-71.2s44.8-29.6 71.2-29.6c26.4 0 52.8 11.2 71.2 29.6s29.6 44.8 29.6 71.2c0 26.4-11.2 52.8-29.6 71.2-19.2 19.2-44.8 29.6-71.2 29.6zM214.4 377.6c0 26.4-11.2 52.8-29.6 71.2s-44.8 29.6-71.2 29.6c-26.4 0-52.8-11.2-71.2-29.6s-29.6-44.8-29.6-71.2c0-26.4 11.2-52.8 29.6-71.2s44.8-29.6 71.2-29.6c26.4 0 52.8 11.2 71.2 29.6s29.6 44.8 29.6 71.2zM531.2 48.8c-23.2 0-46.4-9.6-62.4-25.6s-25.6-39.2-25.6-62.4c0-23.2 9.6-46.4 25.6-62.4s39.2-25.6 62.4-25.6c23.2 0 46.4 9.6 62.4 25.6s25.6 39.2 25.6 62.4c0 23.2-9.6 46.4-25.6 62.4-16.8 16-39.2 25.6-62.4 25.6zM884.8 377.6c0-34.904 28.296-63.2 63.2-63.2s63.2 28.296 63.2 63.2c0 34.904-28.296 63.2-63.2 63.2s-63.2-28.296-63.2-63.2zM826.4 158.4c-20 0-39.2-8-53.6-22.4s-22.4-33.6-22.4-53.6c0-20 8-39.2 22.4-53.6s33.6-22.4 53.6-22.4c20 0 39.2 8 53.6 22.4s22.4 33.6 22.4 53.6c0 20-8 39.2-22.4 53.6s-34.4 22.4-53.6 22.4zM531.2 896c-26.4 0-52.8-11.2-71.2-29.6s-29.6-44.8-29.6-71.2c0-26.4 11.2-52.8 29.6-71.2s44.8-29.6 71.2-29.6c26.4 0 52.8 11.2 71.2 29.6s29.6 44.8 29.6 71.2c0 26.4-11.2 52.8-29.6 71.2-19.2 18.4-44.8 29.6-71.2 29.6z" />
<glyph unicode="&#xe60b;" glyph-name="xiugaibeizhu" d="M939.26 633.192c28.238 28.237 28.561 73.697 0.067 102.191l-76.066 76.066c-28.201 28.201-74.022 28.102-102.191-0.067l-203.212-203.212c-28.238-28.238-28.561-73.697-0.067-102.191l76.066-76.066c28.201-28.201 74.022-28.103 102.191 0.067l203.213 203.212zM913.804 658.647l-203.212-203.212c-14.147-14.147-37.175-14.172-51.279-0.067l-76.066 76.066c-14.304 14.304-14.244 36.968 0.067 51.279l203.212 203.213c14.147 14.147 37.174 14.172 51.279 0.067l76.066-76.066c14.304-14.304 14.244-36.968-0.067-51.279zM562.372 348.21c-26.609-5.265-79.825-15.793-79.825-15.793-12.833-4.343-25.13 7.798-20.951 20.685l32.123 162.922c2.805 8.655 12.097 13.396 20.752 10.591s13.396-12.097 10.591-20.752l-28.695-137.377 67.636 13.363c22.546 4.454 67.636 13.363 67.636 13.363 8.618 2.917 17.969-1.706 20.886-10.324s-1.706-17.969-10.324-20.886c0 0-53.218-10.529-79.825-15.793zM958.399 58.223c0-66.326-53.543-120.623-119.198-120.623h-654.405c-65.654 0-119.197 54.298-119.197 120.623v639.487c0 66.326 53.543 120.622 119.197 120.622h445.602c9.941 0 18-8.059 18-18s-8.059-18-18-18h-445.602c-45.658 0-83.197-38.068-83.197-84.623v-639.487c0-46.554 37.539-84.623 83.197-84.623h654.405c45.658 0 83.198 38.068 83.198 84.623v464.96c0 9.941 8.059 18 18 18s18-8.059 18-18v-464.96zM285.899 166.682h404.6c9.941 0 18-8.059 18-18s-8.059-18-18-18h-404.6c-9.941 0-18 8.059-18 18s8.059 18 18 18v0zM416.5 311.493c9.941 0 18-8.059 18-18s-8.059-18-18-18h-130.6c-9.941 0-18 8.059-18 18s8.059 18 18 18h130.6zM417.4 468.371c9.941 0 18-8.059 18-18s-8.059-18-18-18h-131.5c-9.941 0-18 8.059-18 18s8.059 18 18 18h131.5zM417.4 625.251c9.941 0 18-8.059 18-18s-8.059-18-18-18h-131.5c-9.941 0-18 8.059-18 18s8.059 18 18 18h131.5z" />
<glyph unicode="&#xe60c;" glyph-name="chenggong" horiz-adv-x="1029" d="M514.866 895.998c-281.534-1.627-509.132-230.23-509.132-511.991 0-282.769 229.23-511.999 511.999-511.999 282.766 0 511.994 229.225 511.999 511.99v0c-0.803 282.942-230.357 512.001-513.41 512.001-0.512 0-1.024-0.001-1.535-0.002h0.079zM514.866-64.051c-247.293 0.239-447.671 200.765-447.671 448.091 0 247.474 200.617 448.091 448.091 448.091s448.091-200.617 448.091-448.091c0-0.004 0-0.007 0-0.011v0.001c-0.105-247.497-200.765-448.091-448.276-448.091-0.083 0-0.166 0-0.249 0h0.014zM749.567 548.299c-6.027 5.986-14.332 9.686-23.501 9.686s-17.474-3.7-23.503-9.688l-258.148-257.933-117.248 117.115c-6.009 5.985-14.297 9.686-23.45 9.686s-17.441-3.7-23.451-9.687l0.001 0.001c-6.025-5.998-9.753-14.299-9.753-23.47s3.728-17.472 9.752-23.469l137.422-137.299c0.949-1.305 1.923-2.454 2.975-3.528l-0.005 0.005c6.123-5.985 14.509-9.678 23.757-9.678s17.634 3.693 23.763 9.684l-0.006-0.006c1.086 1.075 2.092 2.225 3.014 3.442l0.058 0.080 278.323 278.118c5.983 6.019 9.682 14.315 9.682 23.475s-3.698 17.456-9.683 23.477l0.002-0.002z" />
<glyph unicode="&#xe60d;" glyph-name="fabu" d="M31.2 362.667l278.756-136.533 22.755 45.51-176.355 91.023 671.288 364.089-449.422-523.379v-295.82h56.89v273.066l460.8 534.755-142.224-705.421-244.621 147.91-34.134-45.511 324.267-193.422 187.733 950.043z" />
<glyph unicode="&#xe60e;" glyph-name="mysql" d="M691.121 559.43l-4.922 10.283c-2.109 2.988-5.186 5.273-6.943 8.789h-0.527v0.527c2.9 0.703 5.889 1.055 8.877 0.967 1.758-1.67 4.482-2.9 5.889-4.922 1.055-1.494 1.23-3.164 2.461-4.395 0-5.186-1.406-8.613-4.482-10.811 0.176 0.088-0.352-0.439-0.352-0.439zM912.518 338.736c-8.174 5.186-17.666 8.086-26.191 13.271-4.746 2.9-9.404 6.504-13.799 9.844-4.131 3.076-8.701 8.877-11.338 13.271-1.406 2.285-1.67 5.010-3.428 6.855 0.527 4.043 5.625 4.043 8.877 5.361 11.338 4.746 24.609 6.328 42.012 5.889-0.527 4.395-11.338 9.844-14.854 12.217-7.031 4.922-14.238 10.195-21.709 14.766-3.955 2.373-10.723 4.131-14.854 5.889-5.889 2.461-18.896 4.834-22.236 9.316-6.416 8.438-10.811 18.721-15.293 28.916-4.57 10.195-10.283 20.918-14.854 31.377-2.285 5.186-3.34 9.844-5.889 14.678-15.908 30.322-39.199 55.723-67.676 73.564-9.316 5.889-19.688 11.25-31.113 14.678-6.504 1.934-14.326 0.879-21.27 2.461h-4.482c-3.867 1.143-7.119 5.273-10.371 7.383-6.68 4.395-13.359 7.559-21.27 10.811-2.988 1.23-10.986 4.131-13.799 1.934-1.67-0.527-2.461-1.23-2.988-2.9-1.67-2.549-0.176-6.416 0.967-8.789 3.164-6.855 7.734-10.986 11.865-16.699 3.691-5.098 8.174-10.898 10.898-16.699 5.537-12.041 8.086-25.4 13.359-37.266 2.021-4.57 5.010-9.756 7.91-13.711 2.373-3.164 6.592-5.625 7.91-9.844 2.725-4.219-3.955-18.545-5.449-23.027-5.713-17.578-4.482-42.1 1.934-57.393 2.549-6.064 5.010-13.096 11.865-14.678 0.527 0.352 0.088 0.176 0.967 0.439 1.494 11.777 1.934 23.115 5.889 32.344 2.461 5.801 7.207 9.756 10.371 14.678 2.373-1.318 2.285-5.273 3.428-7.822 2.9-6.68 5.977-13.975 9.404-20.566 7.295-13.799 15.205-27.070 24.258-39.199 3.164-4.307 7.471-8.965 11.338-12.744 1.67-1.582 3.691-2.461 4.922-4.395h0.527v-0.527c-6.68 2.285-10.635 8.877-15.82 12.744-9.932 7.383-21.621 18.457-28.125 28.916l-8.877 17.666v0.527c-1.23-1.67-0.879-3.428-1.494-5.889-2.813-10.811-0.615-23.027-10.371-26.982-11.162-4.482-19.248 7.295-22.764 12.744-11.25 17.842-14.15 47.9-6.416 72.070 1.67 5.361 1.846 11.953 4.922 16.172-0.527 3.779-3.604 4.922-5.449 7.383-2.988 4.043-5.537 8.789-7.91 13.271-4.658 8.877-7.734 19.336-11.338 28.916-1.494 3.867-1.758 7.559-3.428 11.25-2.549 5.625-7.207 11.162-10.898 16.172-5.186 7.119-19.6 20.83-13.799 34.805 9.141 22.236 40.957 5.361 53.35-2.461 3.076-1.934 6.592-5.977 9.844-7.383l16.348-0.967c10.107-2.373 19.688-4.219 27.686-8.789 37.441-21.709 61.523-43.857 84.023-80.42 4.658-7.646 7.119-15.996 10.898-24.521 5.537-12.656 11.426-25.049 17.842-37.266 2.988-5.625 5.098-11.865 8.877-16.699 1.582-2.021 5.977-2.725 8.438-3.955 7.295-3.691 15.82-6.416 22.764-10.811 12.48-7.822 24.521-17.139 35.596-26.455 4.219-3.604 7.031-8.789 10.898-12.744v-1.934c-3.428-0.967-6.943-1.934-10.371-2.9-7.646-1.934-14.326-1.494-21.709-3.428-4.395-1.143-10.020-2.9-14.854-3.428l0.527-0.439c2.813-7.822 17.93-14.326 24.697-19.16 8.438-6.064 16.436-13.271 22.764-21.533l6.416-6.416c1.494-2.109 1.846-4.834 3.428-6.855v-0.439c-2.988 1.055-4.57 3.691-6.943 5.361-5.010 3.34-9.756 7.119-14.59 10.195zM389.832 193.365h-89.297v18.896h89.385c18.193 1.934 16.084 10.898 16.084 13.887v7.383h-60.029c-27.949 0.264-45.791 12.393-45.967 26.279 0 1.318 0.615 62.402 0 62.93h28.301v-61.084c-0.264-3.34 1.055-11.074 16.523-11.338 7.91-0.088 60.996 0 61.436 0v72.686h28.301c0.176 0 0-99.141 0-99.58 0.176-24.346-30.586-29.619-44.736-30.059zM248.152 343.395l-43.77-96.592c-5.186-11.689-11.953-15.82-25.84-15.82s-20.918 4.131-26.104 15.82l-43.682 96.592v-110.83h-28.301v110.654c0 10.811 4.307 15.996 13.359 18.721 21.445 6.68 36.123 0.879 42.363-13.447l41.572-95.361 42.979 95.361c6.504 14.414 20.918 20.127 42.451 13.447 8.965-2.725 13.359-7.91 13.359-18.721v-110.654h-28.301l-0.088 110.83zM641.902 362.379h53.701c2.725 0 5.186-0.176 7.91-0.527 23.73-3.252 35.684-13.535 35.684-30.498v-66.709c0-13.711-5.098-21.094-16.787-25.928l27.861-24.961h-32.783l-22.5 20.215-22.676-1.406h-30.234c-5.625 0-11.25 0.791-16.611 2.373-18.018 4.834-26.719 14.238-26.719 29.707v66.709c0 16.963 11.953 27.246 35.684 30.498 2.285 0.352 5.010 0.527 7.471 0.527zM629.070 266.314c0-0.879 0.264-1.846 0.527-2.9 1.67-7.734 8.965-12.041 20.127-12.041h25.752l-23.555 21.182h32.783l20.566-18.457c3.779 2.021 6.328 5.098 7.207 9.053 0.264 0.879 0.264 1.846 0.264 2.725v63.984c0 0.703 0 1.67-0.264 2.549-1.67 7.207-8.965 11.338-19.863 11.338h-42.803c-12.568 0-20.742-5.449-20.742-13.887v-63.545zM498.201 343.746c-10.107-0.879-13.096-2.549-14.414-8.262-0.264-0.879-0.264-1.67-0.264-2.373v-12.744c0-0.879 0-1.582 0.264-2.549 1.318-7.559 6.768-10.986 18.193-10.986h34.277c8.438 0 17.139-1.406 24.17-4.131 13.359-5.010 20.127-12.568 20.127-20.654v-20.479c0-9.932-5.977-17.49-18.193-23.027-7.295-3.428-16.611-5.361-26.104-5.361h-81.299v18.721h78.047c1.055 0 1.934 0.176 2.988 0.176 5.449 0.352 9.492 1.846 11.953 3.955 2.725 2.197 4.043 4.658 4.043 6.68v16.348c0 1.934-0.791 3.779-2.197 5.010-2.725 3.252-6.504 4.834-15.469 5.537-0.791 0.176-1.934 0.176-2.988 0.176h-29.355c-2.725 0-5.449 0.176-8.174 0.352-24.17 2.549-38.584 13.271-38.584 25.928v16.348c0 14.414 7.383 22.676 24.17 27.861 5.449 1.582 11.426 2.373 22.852 2.373h79.365v-18.721h-80.771c-0.791 0-1.846-0.176-2.637-0.176zM785.164 265.875c0-9.932 6.24-14.063 22.852-14.063h74.18v-18.721h-73.652c-2.725 0-5.449 0.176-8.174 0.352-29.092 2.109-43.506 12.92-43.506 32.168v97.031h28.301v-96.768zM916.297 273.082c10.986 0 20.83-8.35 20.83-20.654 0-12.393-9.844-20.654-20.83-20.654s-20.83 8.35-20.83 20.654 9.844 20.654 20.83 20.654zM916.297 235.992c8.965 0 16.172 7.031 16.172 16.348 0 9.404-7.207 16.348-16.172 16.348-9.053 0-16.172-7.031-16.172-16.348 0.088-9.316 7.119-16.348 16.172-16.348zM926.229 257.35c0-4.307-2.813-6.064-6.416-6.416l6.855-10.371h-4.658l-6.24 10.195h-3.691v-10.195h-3.955v23.643h9.316c5.713 0 8.789-2.021 8.789-6.855zM911.99 260.865v-6.768h4.307c2.988 0 5.625 0.264 5.625 3.604 0 2.725-2.9 3.164-5.273 3.164h-4.658z" />
<glyph unicode="&#xe60f;" glyph-name="yichang" d="M512 895.334c-282.522 0-511.556-227.908-511.556-509.065 0-281.139 229.035-509.065 511.556-509.065s511.556 227.925 511.556 509.065c0 281.156-229.035 509.065-511.556 509.065zM512-59.273c-246.067 0-445.542 199.475-445.542 445.542 0 246.084 199.475 445.559 445.542 445.559s445.542-199.475 445.542-445.559c0-246.067-199.475-445.542-445.542-445.542zM512 277.709c-21.777 0-37.274 16.657-37.274 38.434l-8.158 349.833c0 21.794 23.654 39.595 45.431 39.595s45.431-17.801 45.431-39.595l-8.158-349.833c0-21.777-15.497-38.434-37.274-38.434zM459.264 149.76c0-29.125 23.611-52.736 52.736-52.736s52.736 23.611 52.736 52.736v0c0 29.125-23.611 52.736-52.736 52.736s-52.736-23.611-52.736-52.736v0z" />
<glyph unicode="&#xe610;" glyph-name="zengjia" d="M477.888 418.112h-273.088c-18.84 0-34.112-15.272-34.112-34.112s15.272-34.112 34.112-34.112h273.088v-273.088c0-18.84 15.272-34.112 34.112-34.112s34.112 15.272 34.112 34.112v0 273.088h273.088c18.84 0 34.112 15.272 34.112 34.112s-15.272 34.112-34.112 34.112h-273.088v273.088c0 18.84-15.272 34.112-34.112 34.112s-34.112-15.272-34.112-34.112v-273.088zM512-128c-282.77 0-512 229.23-512 512s229.23 512 512 512v0c282.77 0 512-229.23 512-512s-229.23-512-512-512v0z" />
<glyph unicode="&#xe611;" glyph-name="yichu" d="M512 896c-283.307 0-512-228.693-512-512s228.693-512 512-512 512 228.693 512 512-228.693 512-512 512M727.040 168.96c-13.653-13.653-37.547-13.653-51.2 0l-163.84 163.84-163.84-163.84c-13.653-13.653-37.547-13.653-51.2 0s-13.653 37.547 0 51.2l163.84 163.84-163.84 163.84c-13.653 13.653-13.653 37.547 0 51.2s37.547 13.653 51.2 0l163.84-163.84 163.84 163.84c13.653 13.653 37.547 13.653 51.2 0s13.653-37.547 0-51.2l-163.84-163.84 163.84-163.84c17.067-13.653 17.067-37.547 0-51.2" />
<glyph unicode="&#xe612;" glyph-name="gongkai" d="M571.7 280.2c-48.7 41.7-44.1 60.3-106.7 60.3s-102-13.9-85.8-102c16.2-88.1 62.6-48.7 58-113.6s11.6-81.2 20.9-97.4c9.3-16.2 41.7-62.6 53.3 2.3s32.5 102 58 134.5c25.5 32.4 51 74.1 2.3 115.9zM400.1 433.3c2.3 32.5 55.7 67.3 92.8 83.5s69.6 20.9 64.9 48.7c-4.6 27.8-13.9 48.7-69.6 48.7s-32.5-76.5-78.8-30.2c-46.4 46.4 9.3 32.5 32.5 44.1s46.4 53.3 7 55.7c-39.4 2.3-32.5-18.6-64.9-7-32.5 11.6-46.4-41.8-67.3-32.5-13.9 4.6-48.7 32.5-74.2 58-48.7-39.4-85.8-90.5-111.3-150.8 7-78.9 48.7-118.3 48.7-118.3s20.9-51 153.1-113.6c0 0 25.5-2.3-4.6 27.8-30.2 30.2-60.3 64.9-25.5 83.5s46.4 18.6 55.7-18.6c9-37 39.2-13.8 41.5 21zM928.9 421.7c0 4.6 0 7-2.3 11.6 0 9.3-2.3 18.6-4.6 25.5 0 4.6-2.3 9.3-2.3 13.9-2.3 9.3-4.6 16.2-7 25.5 0 4.6-2.3 7-2.3 11.6-4.6 11.6-7 23.2-11.6 32.5l-7 13.9c-2.3 7-7 11.6-9.3 18.6-2.3 4.6-7 11.6-9.3 16.2s-4.6 9.3-9.3 13.9c-4.6 4.6-7 11.6-11.6 16.2-2.3 2.3-4.6 7-7 9.3-16.2 20.9-34.8 41.7-55.7 60.3-2.3 0-2.3 2.3-4.6 2.3-7 7-13.9 11.6-23.2 18.6h-2.3c-32.5 25.5-69.6 46.4-109 60.3-11.6-18.6-23.2-41.7-37.1-51-20.9-11.6-18.6-58 20.9-53.3 0 0-11.6-11.6 0-53.3s30.1-51 88.1-27.8c25.5 9.3 44.1 4.6 41.7-20.9-7-53.3-46.4-51-16.2-136.8 18.6-53.3 64.9-71.9 83.5-113.6 9.3-23.2 46.4-41.7 76.5-58 2.3 11.6 7 23.2 9.3 32.5 0 4.6 2.3 9.3 2.3 13.9 2.3 9.3 2.3 16.2 4.6 25.5 0 4.6 0 7 2.3 11.6 0 11.6 2.3 25.5 2.3 37.1 2.5 18.4 2.5 30 0.2 43.9zM771.2 284.8c-16.2-9.3-16.2-32.5-2.3-44.1s41.8-27.8 51 0c9.3 27.9-32.5 53.4-48.7 44.1zM513.8 892.5c-283 0-510.3-227.3-510.3-510.3s227.3-510.2 510.2-510.2c283 0 510.2 227.3 510.2 510.2 0.1 283-227.2 510.3-510.1 510.3zM513.8-81.6c-255.1 0-463.9 208.7-463.9 463.9 0 255.1 208.7 463.8 463.9 463.8 255.1 0 463.9-208.7 463.9-463.8-0.1-255.2-208.8-463.9-463.9-463.9zM513.8-81.6" />
<glyph unicode="&#xe613;" glyph-name="riqi" d="M805.499-85.499l-602.317 0.763c-86.595 8.192-154.568 81.306-154.568 170.015v518.989c0 94.157 76.6 170.757 170.778 170.757h586.102c94.157 0 170.732-76.6 170.732-170.757v-518.968c0.005-94.172-76.595-170.798-170.726-170.798v0zM219.366 705.428c-55.798 0-101.202-45.384-101.202-101.181v-518.968c0-55.798 45.404-101.207 101.202-101.207h586.132c55.777 0 101.161 45.409 101.161 101.207v518.989c0 55.798-45.384 101.187-101.161 101.187l-586.132-0.026zM698.844 605.481c-25.605 0-46.382 20.777-46.382 46.382v158.669c0 25.6 20.777 46.382 46.382 46.382 25.6 0 46.382-20.782 46.382-46.382v-158.653c0-25.626-20.756-46.397-46.382-46.397v0zM315.658 605.481c-25.605 0-46.382 20.777-46.382 46.382v158.669c0 25.6 20.777 46.382 46.382 46.382 25.6 0 46.382-20.782 46.382-46.382v-158.653c0-25.626-20.751-46.397-46.382-46.397v0zM534.886 101.212h-44.273c-25.6 0-46.382 20.777-46.382 46.382 0 25.6 20.782 46.382 46.382 46.382h44.273c25.6 0 46.382-20.782 46.382-46.382 0-25.605-20.782-46.382-46.382-46.382v0zM930.796 443.392h-809.549c-25.605 0-46.382 20.782-46.382 46.382 0 25.605 20.777 46.382 46.382 46.382h809.574c25.6 0 46.382-20.777 46.382-46.382 0-25.6-20.777-46.382-46.408-46.382v0zM327.926 246.968h-44.273c-25.6 0-46.382 20.782-46.382 46.382 0 25.605 20.782 46.382 46.382 46.382h44.273c25.6 0 46.382-20.777 46.382-46.382s-20.782-46.382-46.382-46.382v0zM534.886 246.968h-44.273c-25.6 0-46.382 20.782-46.382 46.382 0 25.605 20.782 46.382 46.382 46.382h44.273c25.6 0 46.382-20.777 46.382-46.382s-20.782-46.382-46.382-46.382v0zM741.279 246.968h-44.268c-25.605 0-46.382 20.782-46.382 46.382 0 25.605 20.777 46.382 46.382 46.382h44.268c25.605 0 46.382-20.777 46.382-46.382s-20.751-46.382-46.382-46.382v0zM327.926 101.212h-44.273c-25.6 0-46.382 20.777-46.382 46.382 0 25.6 20.782 46.382 46.382 46.382h44.273c25.6 0 46.382-20.782 46.382-46.382 0-25.605-20.782-46.382-46.382-46.382v0zM741.279 101.212h-44.268c-25.605 0-46.382 20.777-46.382 46.382 0 25.6 20.777 46.382 46.382 46.382h44.268c25.605 0 46.382-20.782 46.382-46.382 0-25.605-20.751-46.382-46.382-46.382v0z" />
<glyph unicode="&#xe614;" glyph-name="daoxu" d="M733.184 295.424h-442.368l221.184-264.704 221.184 264.704zM290.816 472.576h441.856l-220.672 264.704-221.184-264.704z" />
<glyph unicode="&#xe615;" glyph-name="zhengshu" d="M197.973 189.696v291.84c-15.88-17.222-35.316-30.908-57.169-39.928l-1.071-0.392c-21.253-8.545-45.893-13.502-71.691-13.502-0.971 0-1.941 0.007-2.909 0.021l0.147-0.002v51.84c0.454-0.005 0.99-0.008 1.527-0.008 26.638 0 51.678 6.848 73.453 18.879l-0.783-0.397c9.766 5.484 18.187 11.811 25.669 19.098l-0.027-0.026c6.726 6.608 12.754 13.883 17.991 21.731l0.313 0.498c4.949 7.595 8.576 15.104 10.965 22.485 2.347 7.424 3.584 14.165 3.584 20.224h53.504v-392.363h-53.504zM365.355 455.68c2.091 19.157 6.869 36.523 14.251 52.053 14.037 30.322 39.020 53.585 69.754 65.042l0.859 0.281c15.094 5.683 32.541 8.972 50.756 8.972 0.666 0 1.331-0.004 1.995-0.013l-0.101 0.001c20.181 0 37.931-3.115 53.248-9.387 15.403-6.272 28.288-14.549 38.741-24.917 10.411-10.325 18.261-22.229 23.509-35.584 5.205-13.355 7.851-27.179 7.851-41.429 0-15.957-2.432-30.251-7.168-42.88-4.693-12.629-11.008-24.107-18.901-34.475-8.117-10.57-17.103-19.813-27.050-27.923l-0.3-0.237c-9.51-7.847-20.134-15.759-31.142-23.144l-1.456-0.92c-11.435-7.595-22.827-15.019-34.347-22.315s-22.272-14.848-32.427-22.613c-10.155-7.808-19.328-16.128-27.52-25.045s-14.507-18.901-19.072-29.909h199.339v-51.541h-259.669v43.861c0 13.653 2.944 26.112 8.832 37.419s13.611 21.845 23.211 31.573c9.6 9.771 20.48 18.944 32.768 27.52s24.747 16.853 37.589 24.917 25.344 16.085 37.589 24.064c12.239 7.924 22.885 16.156 32.796 25.181l-0.199-0.179c8.849 8.034 16.489 17.167 22.768 27.236l0.314 0.54c5.888 9.771 8.832 20.437 8.832 32.043 0 12.117-1.749 22.827-5.248 32-3.541 9.216-8.363 16.896-14.549 23.083s-13.355 10.752-21.632 13.824-17.152 4.565-26.667 4.565c-11.349 0-21.845-1.835-31.275-5.547-9.672-3.769-17.928-9.23-24.79-16.086v0c-7.043-7.176-12.694-15.746-16.5-25.253l-0.183-0.517c-4.026-10.112-6.633-21.815-7.243-34.044l-0.010-0.26-57.557 0.043zM696.789 461.611c2.816 15.744 7.467 30.848 13.824 45.269 6.315 14.421 14.677 27.179 25.045 38.272 10.325 11.093 22.869 19.925 37.589 26.496s31.744 9.813 51.115 9.813c18.005 0 34.261-2.603 48.683-7.723s26.667-12.245 36.736-21.333c10.027-9.131 17.749-19.925 23.040-32.469s7.979-26.197 7.979-41.003c0-17.067-4.096-32.725-12.245-46.848-8.643-14.619-20.227-26.625-34.015-35.503l-0.417-0.251c9.813-4.352 18.731-9.6 26.752-15.659 15.735-11.959 27.443-28.487 33.194-47.595l0.171-0.661c2.987-10.155 4.523-21.504 4.523-34.005 0-18.645-3.541-35.029-10.539-49.28-6.979-14.18-16.527-26.089-28.141-35.562l-0.19-0.15c-11.725-9.46-25.525-16.915-40.556-21.57l-0.873-0.233c-14.695-4.711-31.6-7.427-49.139-7.427-0.35 0-0.699 0.001-1.048 0.003h0.054c-18.603 0-35.712 2.859-51.371 8.704-16.093 5.965-29.921 14.509-41.698 25.261l0.098-0.088c-12.253 11.422-22.522 24.768-30.37 39.593l-0.392 0.812c-8.279 15.688-14.91 33.876-18.955 53.017l-0.245 1.383h57.515c2.859-16.171 7.296-29.568 13.355-40.277s13.099-19.285 20.907-25.771c7.936-6.4 16.256-11.051 25.088-13.781s17.493-4.139 26.027-4.139c19.627 0.174 37.559 7.288 51.495 19.003l-0.124-0.102c7.168 6.016 12.928 13.269 17.408 21.803 4.437 8.533 6.656 18.133 6.656 28.8 0 10.24-1.835 19.755-5.547 28.587s-9.045 16.512-15.957 23.083c-6.912 6.528-15.232 11.691-25.045 15.488s-20.736 5.675-32.896 5.675h-31.531v48.427h31.616c11.392 0 20.992 1.621 28.885 4.821 14.061 5.155 24.864 16.252 29.512 30.165l0.099 0.341c2.176 6.613 3.243 13.44 3.243 20.48 0 19.157-5.547 34.133-16.683 44.971-11.093 10.795-26.112 16.213-45.099 16.213-10.837 0-20.395-2.176-28.629-6.571-8.277-4.352-15.36-10.069-21.376-17.067-5.973-7.040-10.709-15.061-14.251-24.021-3.239-7.981-5.681-17.262-6.898-26.924l-0.057-0.554h-56.32v0.085z" />
<glyph unicode="&#xe616;" glyph-name="yulanshuju" d="M960.152 783.266v-569.162h-43.945v527.34c0 26.845-12.769 48.607-39.614 48.607h-721.992c-26.845 0-48.607-21.762-48.607-48.607v-656.373c0-26.845 21.762-48.607 48.607-48.607h542.116v-45.746h-582.138c-28.018 9.893-50.731 32.606-50.731 60.624v731.924c0 28.018 22.713 50.731 50.731 50.731h794.843c28.018 0 50.731-22.713 50.731-50.731zM956.583-47.787l-120.968 214.374c26.75 21.716 47.101 51.807 56.551 87.677 23.672 89.855-29.98 181.886-119.835 205.558s-181.886-29.98-205.558-119.835 29.98-181.886 119.835-205.558c39.187-10.323 78.786-5.937 112.95 9.742l118.957-210.172 38.067 18.213zM592.010 333.339c20 75.917 97.756 121.246 173.673 101.247s121.246-97.756 101.247-173.673c-20-75.917-97.756-121.246-173.673-101.247s-121.246 97.756-101.247 173.673zM874.366 660.356c0-14.529-11.138-26.306-24.878-26.306h-683.835c-13.74 0-24.878 11.777-24.878 26.306v0c0 14.529 11.138 26.306 24.878 26.306h683.835c13.739 0 24.878-11.777 24.878-26.306v0zM867.987 520.262c0-12.293-9.425-22.259-21.051-22.259h-685.11c-11.626 0-21.051 9.965-21.051 22.259v0c0 12.293 9.425 22.259 21.051 22.259h685.11c11.626 0 21.051-9.966 21.051-22.259v0zM545.803 381.068c0-10.779-8.264-21.316-18.458-21.316h-368.112c-10.195 0-18.458 10.537-18.458 21.316v0c0 10.779 8.264 19.518 18.458 19.518h368.112c10.194 0 18.458-8.738 18.458-19.518v0z" />
<glyph unicode="&#xe617;" glyph-name="shangyiye" d="M822.272-79.104c18.432 27.648 9.216 64-9.216 82.432l-475.136 383.488 465.92 374.272c27.648 18.432 27.648 54.784 9.216 82.432s-54.784 27.648-73.216 9.216l-529.92-420.352c-9.216-18.432-18.432-36.352-18.432-45.568 0-18.432 9.216-36.352 18.432-45.568l529.92-429.056c9.216-9.216 18.432-9.216 36.352-9.216 18.432 0 27.648 9.216 46.080 17.92z" />
<glyph unicode="&#xe618;" glyph-name="chuizhijuzhong" d="M128 588.8h768v-102.4h-768v102.4zM128 281.6h768v-102.4h-768v102.4z" />
<glyph unicode="&#xe619;" glyph-name="bumen" d="M636.343 522.971h-248.686c-36.571 0-65.829 29.257-65.829 65.829v197.486c0 36.571 29.257 65.829 65.829 65.829h248.686c36.571 0 65.829-29.257 65.829-65.829v-197.486c0-36.571-29.257-65.829-65.829-65.829zM387.657 793.6c-7.314 0-7.314 0-7.314-7.314v-197.486c0-7.314 0-7.314 7.314-7.314h248.686c7.314 0 7.314 0 7.314 7.314v197.486c0 7.314 0 7.314-7.314 7.314h-248.686zM562.426 271.313h-29.56c-2.608 0-4.347 1.739-4.347 4.347v24.343c0 2.608 1.739 4.347 4.347 4.347h29.56c2.608 0 4.347-1.739 4.347-4.347v-23.474c0-2.608-1.739-5.216-4.347-5.216zM936.229-54.857h-248.686c-36.571 0-65.829 29.257-65.829 65.829v204.8c0 36.571 29.257 65.829 65.829 65.829h248.686c36.571 0 65.829-29.257 65.829-65.829v-197.486c0-36.571-29.257-73.143-65.829-73.143zM687.543 223.086c-7.314 0-7.314 0-7.314-7.314v-204.8c0-7.314 0-7.314 7.314-7.314h248.686c7.314 0 7.314 7.314 7.314 14.629v197.486c0 7.314 0 7.314-7.314 7.314h-248.686zM491.134 271.313h-29.56c-2.608 0-4.347 1.739-4.347 4.347v23.474c0 2.608 1.739 4.347 4.347 4.347h29.56c2.608 0 4.347-1.739 4.347-4.347v-23.474c0-2.608-2.608-4.347-4.347-4.347zM336.457-54.857h-248.686c-36.571 0-65.829 29.257-65.829 65.829v197.486c0 36.571 29.257 65.829 65.829 65.829h248.686c36.571 0 65.829-29.257 65.829-65.829v-197.486c0-36.571-36.571-65.829-65.829-65.829zM87.771 215.771c-7.314 0-7.314 0-7.314-7.314v-197.486c0-7.314 0-7.314 7.314-7.314h248.686l7.314 7.314v197.486c0 7.314 0 7.314-7.314 7.314h-248.686zM490.057 544.914h43.886v-131.657h-43.886zM797.257 384h36.571v-117.029h-36.571zM190.171 391.314h43.886v-131.657h-43.886zM190.171 427.886h643.657v-43.886h-643.657z" />
<glyph unicode="&#xe61a;" glyph-name="wodeshoucang" d="M509.607 752.886c9.083 0 17.328-4.84 20.996-12.332l97.262-197.442c5.614-11.404 16.664-19.36 29.439-21.216l223.739-32.553c8.42-1.215 15.604-6.85 18.233-14.254 2.52-7.184 0.595-15.062-5.085-20.587l-163.938-160.114c-8.95-8.751-12.995-21.171-10.916-33.37l38.011-222.060c1.326-7.738-2.165-15.427-8.905-19.978-4.089-2.742-8.862-4.156-13.813-4.156-4.023 0-8 0.972-11.425 2.74l-195.056 102.766c-5.38 2.862-11.764 4.545-18.54 4.552h-0.002c-6.365 0-12.728-1.547-18.519-4.552l-194.833-102.68c-3.56-1.855-7.602-2.828-11.669-2.828-4.862 0-9.723 1.46-13.546 4.022-6.962 4.685-10.476 12.42-9.128 20.156l38.011 222.016c2.079 12.199-1.988 24.62-10.939 33.37l-163.96 160.17c-5.635 5.492-7.558 13.348-5.061 20.454 2.63 7.481 9.812 13.117 18.298 14.332l223.675 32.553c12.84 1.857 23.867 9.813 29.481 21.216l97.195 197.397c3.713 7.525 11.979 12.377 20.995 12.377M509.607 791.095c-24.044 0-45.923-13.226-56.177-33.957l-97.24-197.441-223.674-32.543c-22.984-3.304-42.101-18.718-49.482-39.659-7.381-21.048-1.813-44.232 14.431-60.033l163.917-160.126-38.012-222.016c-3.868-22.408 6.032-44.82 25.459-57.946 10.696-7.116 23.204-10.785 35.757-10.785 10.982 0.013 21.329 2.725 30.414 7.509l-0.358-0.172 194.988 102.72 195.032-102.719c8.706-4.611 19.030-7.324 29.986-7.337h0.004c12.576 0 25.083 3.669 35.78 10.785 19.426 13.127 29.305 35.538 25.46 57.946l-38.012 222.017 163.937 160.126c16.222 15.812 21.811 38.985 14.408 60.033-7.402 20.941-26.519 36.354-49.503 39.66l-223.674 32.54-97.241 197.442c-10.187 20.73-32.111 33.957-56.2 33.957z" />
<glyph unicode="&#xe61b;" glyph-name="dingbuduiqi" d="M128 896h768v-102.4h-768v102.4zM128 588.8h768v-102.4h-768v102.4z" />
<glyph unicode="&#xe61c;" glyph-name="dibuduiqi" d="M128 281.6h768v-102.4h-768v102.4zM128-25.6h768v-102.4h-768v102.4z" />
<glyph unicode="&#xe61d;" glyph-name="fengmian" d="M573.44 5.12c-5.12 0-10.24 0-15.36 5.12-10.24 5.12-15.36 15.36-15.36 25.6v593.92c0 35.84 15.36 71.68 40.96 102.4 25.6 25.6 61.44 40.96 102.4 40.96h220.16c35.84 0 66.56-30.72 66.56-66.56v-588.8c0-35.84-30.72-66.56-66.56-66.56h-220.16c-30.72 0-66.56-10.24-92.16-30.72-10.24-10.24-15.36-15.36-20.48-15.36zM680.96 706.56c-20.48 0-40.96-10.24-56.32-25.6s-25.6-35.84-25.6-56.32v-537.6c25.6 10.24 51.2 15.36 81.92 15.36h220.16c5.12 0 5.12 0 5.12 5.12v593.92c0 5.12 0 5.12-5.12 5.12h-220.16zM486.4 5.12c-5.12 0-15.36 0-20.48 5.12-25.6 20.48-61.44 30.72-92.16 30.72h-220.16c-35.84 0-66.56 30.72-66.56 66.56v593.92c0 35.84 30.72 66.56 66.56 66.56h220.16c35.84 0 71.68-15.36 102.4-40.96 25.6-25.6 40.96-61.44 40.96-102.4v-588.8c0-10.24-5.12-20.48-15.36-25.6-5.12-5.12-10.24-5.12-15.36-5.12zM153.6 706.56c-5.12 0-5.12 0-5.12-5.12v-588.8c0-5.12 0-5.12 5.12-5.12h220.16c25.6 0 56.32-5.12 81.92-15.36v537.6c0 20.48-10.24 40.96-25.6 56.32s-30.72 20.48-56.32 20.48h-220.16z" />
<glyph unicode="&#xe61e;" glyph-name="shichang" d="M860.433 809.133l-7.646 11.469h-669.559l-7.646-9.83c-170.394-217.907-146.91-350.618-117.965-410.146 29.491-60.075 88.474-98.304 151.279-98.304h5.461c79.189 3.277 131.618 42.598 159.471 70.997 25.122-28.399 72.090-66.628 145.818-66.628 77.005 0 124.518 41.506 148.548 69.905 33.314-27.307 98.85-72.090 167.663-72.090 44.783 0 83.558 18.569 114.688 54.613 116.326 135.987-81.374 437.453-90.112 450.014zM910.131 393.525c-21.299-24.576-45.329-36.591-74.82-36.591-66.082 0-134.895 60.075-150.187 74.274v179.678c0 0.546 0.546 1.092 0.546 1.638 0 14.746-12.015 26.214-26.214 26.214-14.746 0-26.214-12.015-26.214-26.214h-0.546v-194.97c-14.199-19.661-50.79-57.89-113.596-57.89-70.997 0-108.134 48.606-117.965 63.898v188.962c0 14.746-12.015 26.214-26.214 26.214-14.746 0-26.214-12.015-26.214-26.214v-187.87c-13.107-16.93-57.344-66.082-136.533-69.359h-3.277c-34.953 0-80.828 21.299-104.311 69.359-23.484 47.514-40.414 155.648 104.311 345.156h615.492c54.613-87.381 158.379-292.727 85.743-376.286zM862.618 272.284c-14.746 0-26.214-12.015-26.214-26.214v-190.601c0-29.491-23.484-52.975-52.975-52.975h-542.31c-28.945 0-52.975 23.484-52.975 52.975v190.601c0 14.746-12.015 26.214-26.214 26.214-14.746 0-26.214-12.015-26.214-26.214v-195.516c0-55.706 44.783-100.489 100.489-100.489h553.233c55.706 0 100.489 45.329 100.489 100.489v196.062c-0.546 14.199-12.561 25.668-27.307 25.668z" />
<glyph unicode="&#xe61f;" glyph-name="dbd-baocun" horiz-adv-x="1030" d="M990.511 586.868h-64.403v284.659c0.010 0.257 0.016 0.558 0.016 0.86 0 12.030-8.915 21.978-20.499 23.598l-0.126 0.014h-433.429c-12.011-1.337-21.266-11.433-21.266-23.691 0-0.275 0.005-0.549 0.014-0.822l-0.001 0.040v-128.805h-322.013c-0.194 0.006-0.423 0.009-0.652 0.009-12.937 0-23.466-10.31-23.82-23.161l-0.001-0.033v-132.669h-64.403c-0.002 0-0.003 0-0.005 0-21.826 0-39.562-17.512-39.924-39.252v-635.687c0-22.052 17.877-39.93 39.93-39.93v0h950.581c21.908 0.356 39.574 18.022 39.929 39.896v635.687c-0.362 21.774-18.098 39.286-39.924 39.286-0.002 0-0.004 0-0.006 0v0zM495.899 848.342h386.415v-261.474h-302.692v133.957c-0.354 12.884-10.883 23.194-23.82 23.194-0.229 0-0.458-0.003-0.686-0.010l0.034 0.001h-64.403v104.332zM148.77 696.352h386.415v-109.484h-386.415v109.484zM951.225-48.785h-872.010v558.37h872.010v-556.438zM280.795 170.184c15.107-15.502 36.191-25.118 59.52-25.118 0.132 0 0.263 0 0.395 0.001h-0.020c37.854 0.419 69.735 25.513 80.343 59.936l0.16 0.602h188.699c4.071-13.346 10.949-24.802 19.988-34.157l-0.023 0.024c15.084-15.381 36.033-24.962 59.221-25.117h0.029c0.142-0.001 0.31-0.001 0.478-0.001 46.595 0 84.367 37.773 84.367 84.367 0 23.416-9.54 44.605-24.945 59.89l-0.005 0.005c-15.069 14.228-35.447 22.974-57.868 22.974-38.495 0-70.968-25.782-81.095-61.020l-0.146-0.595h-189.343c-12.383 32.176-43.043 54.595-78.939 54.595-43.822 0-79.84-33.41-83.972-76.148l-0.027-0.344c0.241-22.449 9.018-42.803 23.231-58.012l-0.046 0.050zM653.686 230.722c0 0.010 0 0.022 0 0.034 0 9.577 3.944 18.233 10.297 24.432l0.007 0.007c6.403 6.368 15.23 10.305 24.977 10.305 0.049 0 0.099 0 0.148 0h-0.008c0.155 0.002 0.337 0.004 0.52 0.004 10.151 0 19.323-4.194 25.877-10.943l0.009-0.009c6.67-6.572 10.837-15.669 10.948-25.74v-0.021c-0.112-10.092-4.278-19.189-10.944-25.757l-0.004-0.004c-6.406-6.385-15.244-10.332-25.004-10.332-0.493 0-0.983 0.010-1.471 0.030l0.070-0.002c-0.2-0.004-0.435-0.007-0.672-0.007-9.581 0-18.239 3.947-24.439 10.304l-0.007 0.007c-5.724 6.534-9.325 15.053-9.658 24.405l-0.002 0.068zM313.64 255.195c6.725 6.565 15.931 10.615 26.083 10.615s19.358-4.050 26.091-10.622l-0.007 0.007c6.31-6.251 10.237-14.897 10.304-24.46v-0.013c-0.067-9.576-3.995-18.222-10.302-24.47l-0.003-0.003c-6.789-6.42-15.975-10.366-26.083-10.366s-19.294 3.947-26.101 10.383l0.018-0.017c-6.527 6.623-10.557 15.721-10.557 25.761s4.030 19.138 10.561 25.765l-0.004-0.004z" />
<glyph unicode="&#xe620;" glyph-name="biaoqian" d="M467.2-128c-25.6 0-44.8 6.4-57.6 25.6l-384 384c-32 32-32 89.6 0 121.6l486.4 486.4c6.4 6.4 19.2 6.4 25.6 6.4l377.6-83.2c12.8 0 19.2-12.8 25.6-25.6l83.2-377.6c0-12.8 0-19.2-6.4-32l-486.4-486.4c-19.2-12.8-38.4-19.2-64-19.2zM544 832l-473.6-473.6c-6.4-12.8-6.4-25.6 0-32l384-384c6.4-6.4 19.2-6.4 32 0l473.6 473.6-76.8 339.2-339.2 76.8zM652.8 364.8c-44.8 0-83.2 19.2-115.2 44.8-64 64-64 166.4 0 230.4 32 32 70.4 44.8 115.2 44.8s83.2-19.2 115.2-44.8c32-32 44.8-70.4 44.8-115.2s-12.8-83.2-44.8-115.2c-32-32-70.4-44.8-115.2-44.8zM652.8 620.8c-25.6 0-51.2-12.8-70.4-25.6-38.4-38.4-38.4-102.4 0-140.8s102.4-38.4 140.8 0c19.2 19.2 25.6 44.8 25.6 70.4s-12.8 51.2-25.6 70.4c-19.2 19.2-44.8 25.6-70.4 25.6z" />
<glyph unicode="&#xe621;" glyph-name="dbd-quanping" horiz-adv-x="1117" d="M272.415 896h572.071c150.275-0.785 271.932-122.197 273.113-272.302l0.001-0.113v-479.171c-0.791-150.376-122.681-272.020-273.075-272.415h-572.109c-150.132 0.789-271.626 122.282-272.414 272.339v479.247c1.177 149.975 122.44 271.238 272.302 272.414l0.112 0.001zM257.746 710.898c-0.011 0-0.024 0-0.038 0-13.782 0-25.045-10.788-25.804-24.38l-0.003-0.067v-151.574c0.003-14.271 11.573-25.839 25.844-25.839s25.842 11.568 25.844 25.839v0 88.709l90.805-91.503c4.378-3.518 10.002-5.647 16.125-5.647 14.274 0 25.844 11.571 25.844 25.844 0 6.122-2.129 11.747-5.686 16.175l0.039-0.050-90.805 91.503h87.312c0.22-0.007 0.478-0.011 0.738-0.011 13.888 0 25.146 11.258 25.146 25.146 0 0.495-0.014 0.987-0.043 1.475l0.003-0.067c0 14.274-11.571 25.844-25.844 25.844v0h-149.479zM859.853 57.801c14.274 0 25.844 11.571 25.844 25.844v0 148.78c0 14.274-11.571 25.844-25.844 25.844v0c-14.274 0-25.844-11.571-25.844-25.844v0-88.011l-90.805 91.503c-4.665 4.609-11.081 7.457-18.161 7.457s-13.496-2.847-18.164-7.459l0.003 0.003c-4.782-4.585-7.753-11.026-7.753-18.161s2.972-13.576 7.745-18.153l0.009-0.008 91.503-91.503h-88.709c-0.003 0-0.006 0-0.010 0-13.888 0-25.146-11.258-25.146-25.146 0-0.246 0.004-0.49 0.011-0.734l-0.001 0.036c0-0.003 0-0.006 0-0.009 0-14.028 11.176-25.445 25.11-25.834l0.036-0.001h150.177zM885.697 686.45c0 14.274-11.571 25.844-25.844 25.844v0h-150.177c-0.003 0-0.006 0-0.010 0-13.888 0-25.146-11.258-25.146-25.146 0-0.246 0.004-0.49 0.011-0.734l-0.001 0.036c0-13.888 11.258-25.146 25.146-25.146v0h88.011l-90.805-93.599c-4.782-4.585-7.753-11.026-7.753-18.161s2.972-13.576 7.745-18.153l0.009-0.008c4.665-4.609 11.081-7.457 18.161-7.457s13.496 2.847 18.164 7.459l-0.003-0.003 90.805 91.503v-88.011c0.378-14.119 11.726-25.466 25.809-25.844l0.036-0.001c14.274 0 25.844 11.571 25.844 25.844v0 151.574zM231.902 82.947c0-14.274 11.571-25.844 25.844-25.844h149.479c14.274 0 25.844 11.571 25.844 25.844v0c0 14.274-11.571 25.844-25.844 25.844v0h-87.312l90.805 88.709c4.609 4.665 7.457 11.081 7.457 18.161s-2.847 13.496-7.459 18.164l0.003-0.003c-4.665 4.609-11.081 7.457-18.161 7.457s-13.496-2.847-18.164-7.459l0.003 0.003-90.805-89.408v88.011c0 0.001 0 0.003 0 0.005 0 14.274-11.571 25.844-25.844 25.844s-25.844-11.571-25.844-25.844c0-0.002 0-0.004 0-0.005v0-150.177zM844.486 810.085h-572.071c-102.683-0.785-185.714-83.816-186.499-186.424v-479.246c0.392-102.983 83.572-186.409 186.424-187.197h572.146c103.069 0.785 186.413 84.129 187.197 187.123v479.246c-0.789 102.927-84.214 186.107-187.16 186.499h-0.038z" />
<glyph unicode="&#xe622;" glyph-name="shujuji" d="M502.993 869.452l-455.111-242.725v-485.453l455.111-242.724 455.11 242.725v485.452l-455.11 242.724zM885.286 596.385l-382.293-182.045-382.293 182.045 382.293 200.249 382.293-200.249zM108.563 529.635l364.087-169.908v-370.157l-364.087 188.113v351.952zM533.333-10.429v370.155l364.089 169.909v-358.021l-364.089-182.044z" />
<glyph unicode="&#xe623;" glyph-name="kongbaiyibiaoban" d="M860.16 762.88h102.4c12.288 0 20.48-8.192 20.48-20.48s-8.192-20.48-20.48-20.48h-102.4v-102.4c0-12.288-8.192-20.48-20.48-20.48s-20.48 8.192-20.48 20.48v102.4h-102.4c-12.288 0-20.48 8.192-20.48 20.48s8.192 20.48 20.48 20.48h102.4v102.4c0 12.288 8.192 20.48 20.48 20.48s20.48-8.192 20.48-20.48v-102.4zM593.92 762.88c12.288 0 20.48-8.192 20.48-20.48s-8.192-20.48-20.48-20.48h-448.512c-34.816 0-61.44-26.624-61.44-61.44v-675.84c0-34.816 26.624-61.44 61.44-61.44h614.4c34.816 0 61.44 26.624 61.44 61.44v528.384c0 12.288 8.192 20.48 20.48 20.48s20.48-8.192 20.48-20.48v-528.384c0-57.344-45.056-102.4-102.4-102.4h-614.4c-57.344 0-102.4 45.056-102.4 102.4v675.84c0 57.344 45.056 102.4 102.4 102.4h448.512zM196.608 537.6h102.4v-512h-102.4v512zM401.408 435.2h102.4v-409.6h-102.4v409.6zM606.208 332.8h102.4v-307.2h-102.4v307.2z" />
<glyph unicode="&#xe624;" glyph-name="quanbu" d="M520.533 6.827c-204.8 0-370.347 165.547-370.347 370.347s165.547 370.347 370.347 370.347 370.347-165.547 370.347-370.347c-0.853-203.947-166.4-369.493-370.347-370.347zM520.533 698.027c-177.493 0-320.853-143.36-320.853-320.853s143.36-320.853 320.853-320.853 320.853 143.36 320.853 320.853-144.213 320.853-320.853 320.853zM513.707 163.84c-276.48 0-484.693 86.187-484.693 201.387 0 23.893 9.387 60.587 56.32 96.427 11.093 8.533 26.453 6.827 34.987-4.267s6.827-26.453-4.267-34.987c-16.213-13.653-36.693-34.133-36.693-58.027 0-71.68 178.347-151.893 435.2-151.893s434.347 79.36 434.347 151.040c0 29.013-28.16 52.907-52.053 68.267-11.093 8.533-12.8 23.893-4.267 34.987 7.68 9.387 20.48 11.947 30.72 6.827 61.44-40.107 75.093-82.773 75.093-110.080 0-113.493-208.213-199.68-484.693-199.68zM825.173 646.827c-45.227 0-81.067 36.693-81.067 81.067s36.693 81.067 81.067 81.067c45.227 0 81.067-36.693 81.067-81.067 0.853-44.373-35.84-81.067-81.067-81.067zM825.173 760.32c-17.92 0-31.573-14.507-31.573-31.573s14.507-31.573 31.573-31.573c17.92 0 31.573 14.507 31.573 31.573 0.853 17.067-13.653 31.573-31.573 31.573zM441.173 377.173c-65.707 0-119.467 52.907-119.467 119.467s52.907 119.467 119.467 119.467c65.707 0 119.467-52.907 119.467-119.467 0-65.707-53.76-119.467-119.467-119.467zM441.173 565.76c-38.4 0-69.973-31.573-69.973-69.973s31.573-69.973 69.973-69.973c38.4 0 69.973 31.573 69.973 69.973 0 39.253-30.72 69.973-69.973 69.973z" />
<glyph unicode="&#xe625;" glyph-name="shujubiao" d="M511.1 798.6h-314.5c-55.7 0-100.8-45.1-100.8-100.8v-681.9c0-26.5 21.4-47.9 47.9-47.9h734.8c26.5 0 47.9 21.4 47.9 47.9v681.9c0 55.7-45.1 100.8-100.8 100.8h-314.5zM347.1 1.2h-203.3c-8.1 0-14.7 6.6-14.7 14.7v136.8c0 8.1 6.6 14.7 14.7 14.7h203.3c8.1 0 14.7-6.6 14.7-14.7v-136.7c0-8.2-6.6-14.8-14.7-14.8zM347.1 200.6h-203.3c-8.1 0-14.7 6.6-14.7 14.7v136.7c0 8.1 6.6 14.7 14.7 14.7h203.3c8.1 0 14.7-6.6 14.7-14.7v-136.7c0-8.2-6.6-14.7-14.7-14.7zM347.1 399.9h-203.3c-8.1 0-14.7 6.6-14.7 14.7v136.7c0 8.1 6.6 14.7 14.7 14.7h203.3c8.1 0 14.7-6.6 14.7-14.7v-136.7c0-8.1-6.6-14.7-14.7-14.7zM613 1.2h-203.3c-8.1 0-14.7 6.6-14.7 14.7v136.8c0 8.1 6.6 14.7 14.7 14.7h203.3c8.1 0 14.7-6.6 14.7-14.7v-136.7c0-8.2-6.6-14.8-14.7-14.8zM613 200.6h-203.3c-8.1 0-14.7 6.6-14.7 14.7v136.7c0 8.1 6.6 14.7 14.7 14.7h203.3c8.1 0 14.7-6.6 14.7-14.7v-136.7c0-8.2-6.6-14.7-14.7-14.7zM613 399.9h-203.3c-8.1 0-14.7 6.6-14.7 14.7v136.7c0 8.1 6.6 14.7 14.7 14.7h203.3c8.1 0 14.7-6.6 14.7-14.7v-136.7c0-8.1-6.6-14.7-14.7-14.7zM878.9 1.2h-203.3c-8.1 0-14.7 6.6-14.7 14.7v136.8c0 8.1 6.6 14.7 14.7 14.7h203.3c8.1 0 14.7-6.6 14.7-14.7v-136.7c0-8.2-6.6-14.8-14.7-14.8zM878.9 200.6h-203.3c-8.1 0-14.7 6.6-14.7 14.7v136.7c0 8.1 6.6 14.7 14.7 14.7h203.3c8.1 0 14.7-6.6 14.7-14.7v-136.7c0-8.2-6.6-14.7-14.7-14.7zM878.9 399.9h-203.3c-8.1 0-14.7 6.6-14.7 14.7v136.7c0 8.1 6.6 14.7 14.7 14.7h203.3c8.1 0 14.7-6.6 14.7-14.7v-136.7c0-8.1-6.6-14.7-14.7-14.7z" />
<glyph unicode="&#xe626;" glyph-name="fenxiang" d="M757.25 487.8c-50.4 0-95.25 21.825-126.9 56.1l-192.825-110.175c4.8-15.825 8.1-32.25 8.1-49.725 0-28.2-7.35-54.45-19.35-78l185.475-105.825c31.084 48.368 84.595 79.967 145.491 80.025h0.009c95.527-0.043 172.95-77.492 172.95-173.025 0-95.559-77.466-173.025-173.025-173.025s-173.025 77.466-173.025 173.025v0c0 6.375 1.275 12.45 1.95 18.675l-209.7 119.7 0.75 1.35c-29.25-22.275-65.1-36-104.55-36-95.6 0-173.1 77.5-173.1 173.1s77.5 173.1 173.1 173.1v0c50.25 0 95.25-21.825 126.75-56.1l192.9 110.175c-4.925 14.808-7.894 31.871-8.173 49.587l-0.002 0.138c0 95.6 77.5 173.1 173.1 173.1s173.1-77.5 173.1-173.1c0-95.574-77.457-173.057-173.021-173.1h-0.004zM757.25 3.3c57.327 0 103.8 46.473 103.8 103.8s-46.473 103.8-103.8 103.8v0c-57.348 0-103.837-46.49-103.837-103.837s46.49-103.837 103.837-103.837v0zM272.6 487.8c-0.831 0.024-1.81 0.038-2.791 0.038-57.369 0-103.875-46.506-103.875-103.875s46.506-103.875 103.875-103.875c0.981 0 1.96 0.014 2.934 0.041l-0.144-0.003c57.369 0 103.875 46.506 103.875 103.875s-46.506 103.875-103.875 103.875v0zM757.175 764.775c-57.369 0-103.875-46.506-103.875-103.875s46.506-103.875 103.875-103.875v0c57.369 0 103.875 46.506 103.875 103.875s-46.506 103.875-103.875 103.875v0z" />
<glyph unicode="&#xe627;" glyph-name="zhengxu" d="M243.867 491.253h536.266l-268.133 321.76-268.133-321.76zM780.133 276.747h-536.266l268.133-321.76 268.133 321.76z" />
<glyph unicode="&#xe628;" glyph-name="bupaixu" d="M261.878 445.124l249.102 249.102 249.102-249.102zM261.878 320.577l249.102-249.102 249.102 249.102z" />
<glyph unicode="&#xe629;" glyph-name="shaixuan" d="M644.827-88.020c-23.373 0-47.316 23.373-47.316 47.316v530.737c0 11.972 5.701 23.373 11.972 29.644l200.095 253.682h-583.184l188.694-247.411c5.701-11.972 11.972-23.373 11.972-29.644v-360.285c0-23.373-17.672-47.316-41.615-47.316-23.373 0-41.615 23.373-41.615 47.316v342.613l-242.281 300.998c-11.972 11.972-11.972 35.344-5.701 47.316 5.701 17.672 23.373 29.644 41.045 29.644h749.645c17.672 0 35.344-11.972 41.045-29.644s5.701-35.344-5.701-47.316l-242.281-300.998v-513.635c6.271-29.644-5.701-53.017-34.774-53.017zM644.827-88.020" />
<glyph unicode="&#xe62a;" glyph-name="csv" d="M860.75 513.375h-22.5v101.25c0 5.625 0 5.625-5.625 11.25l-174.375 196.875s-5.625 0-5.625 5.625h-433.125c-16.875 5.625-33.75-11.25-33.75-28.125v-286.875h-22.5c-28.125 0-50.625-22.5-50.625-50.625v-264.375c0-28.125 22.5-50.625 50.625-50.625h22.5v-180c0-16.875 16.875-33.75 33.75-33.75h585c16.875 0 33.75 16.875 33.75 33.75v180h22.5c28.125 0 50.625 22.5 50.625 50.625v264.375c0 28.125-22.5 50.625-50.625 50.625zM219.5 800.25h410.625v-180c0-11.25 5.625-16.875 16.875-16.875h157.5v-90h-585v286.875zM483.875 322.125c-39.375 11.25-67.5 39.375-67.5 73.125 0 45 33.75 84.375 95.625 84.375 28.125 0 50.625-5.625 67.5-11.25l-11.25-50.625c-16.875 5.625-33.75 11.25-56.25 11.25-28.125 0-39.375-11.25-39.375-28.125s16.875-22.5 50.625-39.375c45-11.25 67.5-39.375 67.5-73.125 0-45-33.75-84.375-106.875-84.375-28.125 0-61.875 5.625-73.125 16.875l11.25 50.625c16.875-5.625 39.375-16.875 67.5-16.875s39.375 11.25 39.375 28.125-11.25 28.125-45 39.375zM174.5 339c0 90 61.875 140.625 146.25 140.625 28.125 0 56.25-5.625 67.5-11.25l-16.875-50.625c-11.25 5.625-28.125 11.25-50.625 11.25-45 0-84.375-28.125-84.375-84.375 0-50.625 33.75-84.375 84.375-84.375 16.875 0 39.375 5.625 50.625 11.25l11.25-56.25c-11.25-5.625-33.75-11.25-67.5-11.25-90 0-140.625 56.25-140.625 135zM804.5-21h-585v168.75h585v-168.75zM765.125 209.625h-67.5l-90 264.375h67.5l33.75-112.5c11.25-33.75 16.875-61.875 22.5-95.625 5.625 33.75 16.875 61.875 22.5 95.625l33.75 112.5h61.875l-84.375-264.375z" />
<glyph unicode="&#xe62b;" glyph-name="zuoyoujuzhong" horiz-adv-x="1275" d="M283.476 182.53h669.015v-67.054h-669.015zM352.25 417.522h531.467v-67.054h-531.467zM283.476 652.524h669.015v-67.054h-669.015z" />
<glyph unicode="&#xe62c;" glyph-name="youduiqi" horiz-adv-x="1278" d="M263.476 162.53h669.015v-67.054h-669.015zM402.787 397.522h531.467v-67.054h-531.467zM263.476 632.524h669.015v-67.054h-669.015z" />
<glyph unicode="&#xe62d;" glyph-name="zuoduiqi" horiz-adv-x="1278" d="M264.808 162.53h669.015v-67.054h-669.015zM263.476 397.522h531.467v-67.054h-531.467zM264.808 632.524h669.015v-67.054h-669.015z" />
<glyph unicode="&#xe62e;" glyph-name="dameng" d="M0 896h1024v-1024h-1024zM574.805 458.752c50.176-29.355 125.269-23.211 173.056-75.776 24.917-29.355 34.133-115.712 34.133-115.712 116.736 119.808 162.816 260.779 104.448 353.28s-187.733 109.227-333.824 68.267c-39.595-44.032-37.547-193.536 22.869-229.035zM710.315 364.203c-48.128 63.147-116.736 34.133-177.493 94.549-64.853 68.267-26.965 204.8-24.917 210.261-20.821-8.533-43.691-16.725-64.853-27.307 0-2.048-22.869-140.971 16.725-191.488 45.739-56.661 136.533-34.133 183.637-81.92 64.512-63.147 41.643-182.955 41.643-185.003l56.32 44.032c0 4.096 8.192 88.405-31.403 136.533zM631.125 345.429c-50.176 50.517-112.64 37.888-164.864 68.267s-64.853 149.163-43.691 218.795c-16.725-8.533-31.403-16.725-48.128-27.307-4.096-2.048-8.192-6.144-12.629-8.533s-20.48-135.509 27.307-178.517c75.093-68.267 125.269-34.133 177.493-75.776s41.643-204.8 41.643-204.8l43.691 25.259c2.3 2.475 5.011 4.532 8.029 6.069l0.163 0.075c-2.048 4.096 20.821 130.389-29.355 178.859zM485.035 267.605c-52.224 63.147-110.592 25.259-200.363 92.501-54.272 39.936-43.691 134.485-43.691 136.533-114.688-119.808-160.768-258.389-104.448-351.573s189.781-107.179 337.92-63.147c4.096 10.581 43.691 145.067 10.581 185.003zM553.984 313.685c-39.595 39.936-106.496 34.133-166.912 68.267s-60.416 141.995-48.128 198.997c-24.675-17.691-46.143-34.935-66.645-53.239l0.768 0.674h3.413s-20.821-117.76 39.595-161.792c45.739-34.133 160.768-37.888 187.733-73.728 52.224-75.776 16.725-195.584 16.725-197.632 20.821 8.533 41.643 16.725 62.464 27.307 0 18.773 8.192 153.6-29.355 191.488zM553.984 313.685" />
<glyph unicode="&#xe62f;" glyph-name="xiazai" d="M836.021 448.889c0.243 5.108 0.73 10.217 0.73 15.325 0 141.090-114.332 255.544-255.544 255.544-101.804 0-189.377-59.599-230.488-145.712-19.947 15.447-44.881 24.691-72.005 24.691-65.072 0-117.859-52.787-117.859-117.859 0-12.285 1.824-24.083 5.352-35.151-50.72-30.043-82.465-85.262-82.465-148.631 0-94.628 77.113-171.498 172.714-172.957l82.587 5.108-54.733 62.761c-23.475 27.975-28.948 62.396-14.839 92.56s44.273 47.8 80.762 47.8h36.611v94.141c0 56.436 47.192 107.156 103.628 107.156h35.759c56.558 0 99.615-50.598 99.615-107.156v-94.020h40.746c36.489 0 66.775-18.974 80.762-49.138 14.109-30.164 8.514-62.761-14.839-90.857l-54.733-63.126s90.128-3.041 93.29-3.041c93.412 0 169.187 74.437 169.187 167.849 0 70.302-43.057 129.292-104.237 154.713zM666.591 259.755h-112.507v166.754c0 17.028-10.947 36.489-27.853 36.489h-35.759c-17.028 0-31.989-19.461-31.989-36.489v-166.754h-108.372c-17.028 0-22.015-11.068-11.068-24.083l149.361-178.674c5.473-6.568 12.649-9.852 19.826-9.852s14.352 3.162 19.826 9.73l149.361 178.796c11.19 13.136 6.203 24.083-10.825 24.083z" />
<glyph unicode="&#xe630;" glyph-name="bianji" horiz-adv-x="1084" d="M635.405 465.395l-7.877-10.503c-10.503-13.128-7.877-28.882 2.626-39.385 13.128-10.503 28.882-7.877 39.385 2.626l7.877 10.503c10.503 13.128 7.877 28.882-2.626 39.385s-28.882 10.503-39.385-2.626zM244.185 66.297l183.795 65.641c5.251 2.626 7.877 5.251 13.128 7.877l178.544 215.303c10.503 13.128 7.877 28.882-2.626 39.385-13.128 10.503-28.882 7.877-39.385-2.626l-173.292-210.051-131.282-47.262 23.631 139.159 317.703 385.969 107.651-91.897-31.508-39.385c-7.877-5.251-7.877-15.754-5.251-26.256s10.503-15.754 21.005-18.379c10.503-2.626 21.005 2.626 26.256 10.503l39.385 47.262 34.133 39.385c44.636 55.138 36.759 133.908-15.754 181.169-52.513 44.636-133.908 39.385-178.544-15.754l-21.005-26.256-13.128-15.754-333.456-396.472c-2.626-2.626-5.251-7.877-5.251-13.128l-31.508-194.297c-2.626-10.503 2.626-21.005 10.503-26.256 5.251-7.877 15.754-10.503 26.256-7.877zM653.785 709.579c26.256 31.508 70.892 34.133 99.774 7.877s34.133-70.892 7.877-102.4l-5.251-5.251-110.277 91.897 7.877 7.877zM960.985 34.79h-834.954c-10.503 0-21.005-5.251-23.631-13.128-5.251-7.877-5.251-21.005 0-28.882 2.626-10.503 13.128-15.754 23.631-15.754h837.579c15.754 0 28.882 13.128 28.882 28.882-2.626 15.754-15.754 28.882-31.508 28.882z" />
<glyph unicode="&#xe631;" glyph-name="sousuo" d="M1014.322-68.71l-205.297 206.094c69.304 79.833 111.541 184.787 111.541 299.606 0 132.837-56.534 252.47-146.853 336.152l-0.297 0.272c-81.968 75.971-192.092 122.579-313.102 122.579-127.046 0-242.094-51.374-325.501-134.481l0.014 0.014c-83.271-82.977-134.795-197.766-134.795-324.59 0-120.809 46.753-230.698 123.153-312.561l-0.247 0.268c84.41-90.408 204.3-146.761 337.352-146.761 115.023 0 220.21 42.116 300.98 111.767l-0.597-0.503 202.567-206.094c6.419-6.787 15.487-11.010 25.541-11.010 19.402 0 35.13 15.728 35.13 35.13 0 9.347-3.651 17.842-9.604 24.136l0.015-0.016zM71.398 435.802c0 215.082 174.807 389.434 390.458 389.434 215.707 0 390.514-174.352 390.514-389.434s-174.807-389.434-390.514-389.434c-215.537 0.228-390.23 174.466-390.458 389.434z" />
<glyph unicode="&#xe632;" glyph-name="yonghuguanli" d="M352 384c-123.712 0-224 100.288-224 224s100.288 224 224 224c123.712 0 224-100.288 224-224v0c0-123.712-100.288-224-224-224v0zM352 768c-88.366 0-160-71.634-160-160s71.634-160 160-160c88.366 0 160 71.634 160 160v0c0 88.366-71.634 160-160 160v0zM800 448c-88.366 0-160 71.634-160 160s71.634 160 160 160c88.366 0 160-71.634 160-160v0c0-88.366-71.634-160-160-160v0zM800 704c-53.019 0-96-42.981-96-96s42.981-96 96-96c53.019 0 96 42.981 96 96v0c0 53.019-42.981 96-96 96v0zM672-64c-17.673 0-32 14.327-32 32v0c0 159.058-128.942 288-288 288s-288-128.942-288-288v0c0-17.673-14.327-32-32-32v0c-17.673 0-32 14.327-32 32v0c0 194.404 157.596 352 352 352s352-157.596 352-352v0c0-17.673-14.327-32-32-32v0zM672-64h-640c-17.673 0-32 14.327-32 32s14.327 32 32 32v0h640c17.673 0 32-14.327 32-32s-14.327-32-32-32v0zM992 64h-192c-17.673 0-32 14.327-32 32s14.327 32 32 32v0h160v32c0 88.366-71.634 160-160 160v0c-0.389 0.004-0.849 0.006-1.31 0.006-32.504 0-62.66-10.054-87.526-27.222l0.516 0.337c-5.036-3.399-11.241-5.426-17.92-5.426-17.842 0-32.306 14.464-32.306 32.306 0 11.163 5.662 21.004 14.271 26.807l0.115 0.073c34.947 23.263 77.892 37.12 124.074 37.12 0.030 0 0.060 0 0.091 0h-0.005c123.712 0 224-100.288 224-224v0-64c0-17.673-14.327-32-32-32v0z" />
<glyph unicode="&#xe633;" glyph-name="quanxianshezhi" d="M504.32 408.32c34.753-34.796 82.788-56.32 135.849-56.32 106.039 0 192 85.961 192 192s-85.961 192-192 192c-53.061 0-101.095-21.524-135.847-56.318l-0.002-0.002c-34.695-34.737-56.151-82.703-56.151-135.68s21.456-100.943 56.153-135.682l-0.002 0.002zM458.88 362.88c-46.267 46.317-74.88 110.276-74.88 180.919 0 141.385 114.615 256 256 256s256-114.615 256-256c0-70.642-28.613-134.602-74.882-180.921l0.002 0.002c-46.337-46.387-110.377-75.081-181.12-75.081s-134.783 28.694-181.118 75.079l-0.002 0.002zM457.28 374.72c5.815 5.815 13.847 9.411 22.72 9.411 17.745 0 32.131-14.386 32.131-32.131 0-8.873-3.596-16.905-9.411-22.72l-256-256c-5.815-5.815-13.847-9.411-22.72-9.411-17.745 0-32.131 14.386-32.131 32.131 0 8.873 3.596 16.905 9.411 22.72v0zM470.72 214.72c5.815-5.815 9.411-13.847 9.411-22.72 0-17.745-14.386-32.131-32.131-32.131-8.873 0-16.905 3.596-22.72 9.411l-32 32c-5.815 5.815-9.411 13.847-9.411 22.72 0 17.745 14.386 32.131 32.131 32.131 8.873 0 16.905-3.596 22.72-9.411v0zM406.72 118.72c5.815-5.815 9.411-13.847 9.411-22.72 0-17.745-14.386-32.131-32.131-32.131-8.873 0-16.905 3.596-22.72 9.411l-64 64c-5.815 5.815-9.411 13.847-9.411 22.72 0 17.745 14.386 32.131 32.131 32.131 8.873 0 16.905-3.596 22.72-9.411v0z" />
<glyph unicode="&#xe634;" glyph-name="caiji" d="M770.038-66.509c-4.71 0-9.462 1.137-13.855 3.441l-244.675 129.987-264.417-130.386c-3.816-1.949-8.323-3.091-13.096-3.091-6.908 0-13.258 2.392-18.266 6.393l0.059-0.045c-7.223 5.744-11.813 14.532-11.813 24.392 0 1.999 0.189 3.953 0.549 5.847l-0.031-0.194 54.252 296.786-189.235 207.38c-5.011 5.529-8.079 12.901-8.079 20.989 0 3.343 0.524 6.564 1.494 9.584l-0.062-0.222c3.286 10.482 11.84 18.39 22.482 20.7l0.2 0.036 263.639 54.19 141.384 239.186c5.499 9.155 15.237 16.097 25.702 16.097h0.727c10.732 0 20.552-7.741 25.661-17.388l135.311-255.283 258.56-36.147c10.793-1.485 19.948-9.011 23.941-19.354 1.322-3.345 2.088-7.221 2.088-11.275 0-7.401-2.553-14.206-6.827-19.581l0.049 0.064-153.938-192.512c-5.466-6.898-13.843-11.284-23.244-11.284-7.262 0-13.912 2.616-19.060 6.958l0.044-0.036c-6.771 5.754-11.039 14.278-11.039 23.797 0 7.36 2.551 14.124 6.817 19.457l-0.048-0.062 119.941 149.965-220.436 30.536c-9.774 1.408-17.911 7.36-22.306 15.608l-0.079 0.162-117.658 221.348-121.078-203.694c-4.285-7.165-11.28-12.333-19.534-14.116l-0.198-0.036-223.805-46.039 162.877-178.463c6.523-7.127 9.318-17.019 7.578-26.604l-46.141-252.365 224.492 110.735c3.809 1.929 8.304 3.059 13.063 3.059 5.074 0 9.847-1.284 14.013-3.546l-0.155 0.077 183.593-97.567-109.619 262.369c-6.513 15.606 0.604 33.638 15.831 40.346 15.114 6.656 32.891-0.553 39.444-16.2l142.531-341.176c1.524-3.553 2.409-7.689 2.409-12.031 0-8.863-3.69-16.863-9.618-22.549l-0.011-0.010c-5.287-5.090-12.486-8.227-20.417-8.233h-0.001zM485.366 309.77c-8.182 0-16.353 3.379-22.262 10.107l-68.157 76.933c-4.838 5.47-7.792 12.704-7.792 20.628 0 8.984 3.797 17.081 9.874 22.774l0.017 0.016c5.267 4.923 12.363 7.945 20.166 7.945 8.856 0 16.802-3.894 22.22-10.063l0.029-0.033 68.157-76.974c4.831-5.465 7.78-12.691 7.78-20.607 0-8.975-3.792-17.065-9.862-22.754l-0.017-0.016c-5.264-4.926-12.36-7.952-20.162-7.956h-0.001z" />
<glyph unicode="&#xe635;" glyph-name="shejigongfang" horiz-adv-x="1105" d="M1097.466 180.904v627.392c0 8.478-0.573 16.793-2.376 25.271-8.355 36.616-43.17 61.846-79.868 62.379-7.372 0.123-14.95 0-22.486 0h-905.577c-2.621 0-5.243 0.123-7.905-0.123-21.38-1.515-42.391-9.871-56.931-26.254-13.926-15.646-21.708-34.814-22.076-55.866-0.082-9.748 0-19.332 0-29.080v-587.704c0-15.195-1.147-31.538 3.195-46.2 10.618-34.368 41.956-58.968 79.091-59.307h429.974v-146.26h-184.31c-23.674 0-47.347 0.451-71.021 0h-1.024c-19.086 0-37.272-16.793-36.452-36.452 0.901-19.783 15.974-36.493 36.452-36.493h513.611c23.674 0 47.347-0.451 71.021 0h1.024c19.086 0 37.272 16.793 36.452 36.452-0.901 19.783-15.974 36.493-36.452 36.493h-256.478v146.219h430.057c0.819 0 1.597 0 2.376 0.123 44.059 1.942 79.116 37.843 79.703 82.063l0.001 0.057v7.29zM921.757 164.357l-842.953 0.655c-0.737 0.369-1.393 0.819-2.089 1.27-0.573 0.573-1.147 1.024-1.638 1.638l-1.229 2.048c-0.205 0.901-0.573 1.802-0.696 2.703-0.205 5.611 0 11.345 0 16.793v547.074c0 25.517-0.082 50.992 0 76.509 0 0.573 0 1.229 0.123 1.802l0.696 2.539c0.328 0.696 0.819 1.352 1.229 2.048 0.614 0.573 1.065 1.147 1.638 1.638l2.048 1.229c0.901 0.246 1.843 0.573 2.867 0.819 8.11 0.41 16.465 0 24.575 0l912.663-0.696c0.696-0.369 1.393-0.819 2.048-1.27 0.573-0.573 1.147-1.024 1.638-1.638l1.229-2.048c0.246-0.901 0.573-1.802 0.696-2.703 0.205-5.611 0-11.345 0-16.793v-547.115c0-25.517 0.123-50.992 0-76.509 0-0.573 0-1.229-0.123-1.802l-0.696-2.539c-0.328-0.655-0.819-1.352-1.229-2.048-0.573-0.573-1.065-1.147-1.638-1.638l-2.048-1.229-2.498-0.696h-26.295c-22.773-0.082-45.627-0.082-68.4-0.082zM329.63 603.056c-19.783-0.901-36.452-15.974-36.452-36.452v-292.48c0-19.127 16.793-37.272 36.452-36.452 19.783 0.86 36.452 15.974 36.452 36.452v292.439c0 19.127-16.793 37.272-36.452 36.493zM768.247 529.987c-19.783-0.901-36.452-15.974-36.452-36.452v-219.534c0-19.086 16.793-37.272 36.452-36.452 19.783 0.901 36.452 15.974 36.452 36.452v219.534c-0.082 19.086-16.793 37.394-36.452 36.452zM548.959 675.674c-19.783-0.901-36.493-15.974-36.493-36.452v-365.344c0-19.086 16.793-37.272 36.452-36.452 19.783 0.901 36.493 15.974 36.493 36.452v365.344c0 19.086-16.793 37.272-36.452 36.452z" />
<glyph unicode="&#xe636;" glyph-name="hive" horiz-adv-x="1112" d="M197.973 806.278c-40.96-40.96-58.514-51.688-92.647-55.588-38.035-5.852-43.886-9.753-64.366-51.688-30.232-60.465-23.406-88.747 37.059-157.989 26.331-30.232 56.564-74.118 67.291-98.499l19.505-43.885h53.638c29.257 0 64.366 3.9 78.020 9.752 30.232 11.703 30.232 9.752 4.876-33.158s-19.505-63.39 37.059-123.855c38.034-40.96 78.994-64.366 161.89-90.698 16.578-4.876 24.38-44.86 7.801-44.86-33.158 0-133.608 42.91-178.469 76.068l-53.638 39.010 9.753-43.886c9.752-39.010 15.604-45.836 58.514-68.267 26.331-12.678 78.994-30.232 118.004-38.034 65.34-13.653 88.747-27.307 78.019-44.861-8.777-13.653-68.267-8.777-132.632 11.703-76.069 23.406-77.044 23.406-46.812-0.975 71.192-57.54 112.152-68.267 182.37-48.762 24.38 6.826 32.182 5.851 37.059-6.827 3.9-9.752-0.976-21.455-10.728-28.282-22.43-16.579-15.604-15.604 35.109 1.95 22.43 7.803 42.91 14.63 44.86 14.63s3.902-15.605 3.902-35.11c0-30.232 2.925-34.133 21.455-31.207 19.505 2.926 22.43 7.802 19.505 38.034-1.951 20.48 0.975 39.010 6.826 42.91 6.827 3.902 10.728-9.752 10.728-39.009 0-40.96 1.95-44.86 22.43-41.935s21.456 7.802 23.406 102.4l2.926 100.45h-24.381c-22.43 0-24.381-3.901-24.381-39.985 0-23.406-3.901-37.060-9.753-33.158-4.876 2.925-9.752 21.455-9.752 39.984 0 26.332-3.9 33.159-19.505 33.159-17.554 0-19.504-6.827-19.504-54.614v-53.638l-31.208 2.926c-17.554 1.95-30.232 6.826-29.257 11.703 1.95 4.876-2.926 12.678-11.703 17.554-22.43 12.678-19.505 35.109 6.827 39.985 19.504 3.9 19.504 3.9-2.926 5.851-30.233 0.975-48.762 17.554-48.762 42.91 0 16.58 0.975 16.58 15.604 2.926 7.802-8.777 21.455-15.603 30.232-15.603 11.703 0 8.777 6.826-9.752 25.356-14.629 14.628-23.406 29.257-20.48 34.133 10.727 17.554 40.96 7.802 57.539-16.579 14.628-22.43 20.48-24.381 51.687-19.505 46.812 8.777 64.366 8.777 124.83 0.975 45.837-6.826 51.689-4.876 84.847 23.406 34.133 30.233 57.539 80.945 70.217 157.989 7.802 42.91-11.703 65.34-42.91 48.762-27.307-14.629-39.985-13.654-39.985 4.876 0 8.777-15.604 45.836-35.109 81.92l-35.109 66.316 35.109 111.177-27.307 52.663c-39.984 75.093-74.118 101.425-132.632 101.425-37.060 0-53.638-5.852-77.044-25.356l-30.232-25.357-86.796 44.861c-74.12 38.035-175.543 74.118-210.652 74.118-5.851 0-33.158-22.43-60.465-50.712zM380.343 805.303c91.672-38.034 193.097-92.648 227.23-122.88 22.43-20.48 38.035-46.812 49.737-86.796 10.728-34.134 23.406-57.54 31.208-57.54 11.703 0 11.703 2.926 0 15.604-7.802 8.778-17.554 36.084-21.455 59.49-6.827 42.91-46.812 96.549-81.92 109.227-11.703 4.876-10.728 9.752 7.802 28.282 18.53 19.504 31.207 23.405 73.143 21.455 45.836-0.975 53.638-4.876 81.92-39.010 17.554-20.48 39.010-50.712 46.811-68.266 13.653-29.258 13.653-36.084-3.9-87.772l-19.506-56.564 34.134-66.316c36.083-73.143 39.984-89.722 18.53-81.92-7.803 3.901-16.58 1.95-19.506-2.926-3.9-5.851-0.975-9.752 4.877-9.752s8.777-3.9 5.851-8.777c-3.9-4.876 0-11.703 5.851-13.653 6.827-2.926-1.95-2.926-18.529 0-20.48 2.925-32.183 0.975-32.183-4.877 0-6.826 7.802-8.777 17.554-4.876 14.629 5.852 15.604 4.876 1.95-11.703-13.652-16.579-13.652-17.554 7.803-5.851 23.405 12.678 26.331 8.777 11.703-19.505-6.827-11.703-6.827-18.53-0.976-18.53 4.877 0 14.629 15.604 21.456 34.134 11.702 32.183 28.282 45.836 28.282 24.38 0-14.628 22.43-11.702 44.86 4.877 17.555 12.678 17.555 13.653-5.851 8.777-21.455-3.9-21.455-2.925-4.876 4.876 10.727 4.877 23.406 4.877 28.282 0.976 13.653-13.654-13.654-104.35-43.886-145.31-29.257-41.936-73.143-58.515-118.004-44.862-33.158 10.728-106.3 73.143-99.474 84.846 3.9 5.851 0.975 8.777-5.851 5.851-7.802-1.95-15.604-9.752-17.555-17.554-2.925-6.827 0-9.752 6.827-5.851 16.579 10.727 12.678-19.505-3.901-33.158-8.777-6.827-13.653-18.53-10.728-26.332s0.976-10.727-3.9-7.802c-5.852 2.926-9.753 11.703-9.753 19.505 0 6.827-11.703 26.331-25.356 43.886-21.455 24.38-24.381 36.084-20.48 66.316 5.851 33.158 3.9 37.059-25.356 50.712-30.233 13.654-31.208 17.555-34.134 78.995l-2.925 65.34-36.084-8.777c-19.505-3.9-75.094-20.48-123.855-37.059-115.079-38.034-171.642-34.133-188.221 12.678-6.827 16.58-31.208 52.663-55.589 78.995-57.539 63.39-71.192 110.202-46.811 158.964 14.628 30.232 23.405 36.083 52.662 39.009 19.505 1.95 58.515-5.851 86.797-16.579 66.316-25.356 74.118-19.505 14.628 8.777l-44.86 21.455 27.306 31.208c66.316 75.093 81.92 78.019 188.22 32.183zM404.723 411.307c11.704-48.762 84.847-188.221 105.327-202.85 10.727-7.802 17.554-17.554 13.653-20.48-7.802-7.802-106.301 56.564-136.533 88.747-25.357 27.306-42.911 63.39-50.713 104.35-5.851 32.183-3.9 36.084 21.455 44.861 39.010 14.629 39.010 14.629 46.812-14.628zM682.667 159.695c-6.827-7.802-19.505-14.628-28.282-14.628-10.728 0-7.802 4.876 8.777 13.653 32.183 18.53 34.133 18.53 19.505 0.975zM702.171 726.309c0-11.703 48.762-97.524 48.762-85.821 0 18.53-25.356 77.043-38.034 83.87-5.851 3.901-10.728 4.876-10.728 1.95zM492.495 628.785c54.614-9.753 56.564-11.703 34.134-22.43l-24.381-11.704h29.257c20.48-0.975 37.059-10.727 56.564-32.182l27.306-32.183-24.38 49.737c-28.283 57.539-37.060 62.415-106.302 61.44l-50.712-0.975 58.514-11.703zM668.038 446.415c-10.728-16.579 0-19.505 20.48-3.9 16.58 12.677 16.58 13.653 1.95 14.628-8.777 0-19.504-4.876-22.43-10.728zM679.741 391.802c-11.703-11.703-6.827-22.43 10.728-23.406 13.653 0 13.653-1.95-2.926-8.777-14.629-5.851-10.728-7.802 17.554-6.827 25.356 1.95 35.109 5.852 31.208 14.629-2.926 7.802-4.876 17.554-4.876 22.43 0 9.753-41.936 11.703-51.688 1.95zM772.389 16.335c2.925-95.573 3.9-100.45 25.356-103.375 21.455-2.926 21.455-1.95 21.455 99.474v103.376h-49.737l2.926-99.475zM832.853 94.354c9.753-43.885 35.109-175.543 35.109-180.419 0-1.95 11.703-2.925 26.331-0.975 24.381 2.926 28.282 8.777 39.010 55.589 5.851 29.257 14.628 74.118 17.554 100.45 6.827 45.835 5.852 46.81-18.53 46.81-23.405 0-25.356-3.9-25.356-39.009 0-21.455-3.9-39.010-9.752-39.010-4.876 0-9.752 10.728-9.752 23.406 0 39.010-10.728 54.614-35.109 54.614-19.505 0-23.406-3.901-19.505-21.456zM969.387 16.335l2.925-100.45h47.787c44.861 0 47.787 1.951 50.712 27.307 2.926 23.406 0 26.332-26.331 26.332-16.579 0-30.232 4.876-30.232 9.752 0 5.852 6.826 9.753 14.628 9.753 8.777 0 14.629 8.777 14.629 24.38 0 13.654-3.901 24.381-9.753 24.381-4.876 0-9.752 6.827-9.752 14.629 0 8.777 8.777 14.629 24.381 14.629 19.505 0 24.38 4.876 24.38 24.38 0 23.406-2.925 24.382-52.662 24.382h-52.663l1.95-99.475z" />
<glyph unicode="&#xe637;" glyph-name="shujuzhongxin" d="M512 853.333c-260.267 0-469.333-209.067-469.333-469.333s209.067-469.333 469.333-469.333c260.267 0 469.333 209.067 469.333 469.333s-209.067 469.333-469.333 469.333zM746.667 740.267c0-4.267 0-10.667 0-14.933 0-44.8-4.267-87.467-12.8-130.133-29.867-6.4-51.2-32-51.2-61.867 0-17.067 6.4-34.133 19.2-44.8-14.933-34.133-29.867-68.267-51.2-100.267-78.933 89.6-134.4 202.667-153.6 328.533 49.067 29.867 102.4 53.333 157.867 68.267 32-10.667 64-25.6 91.733-44.8zM657.067 320c38.4-36.267 78.933-68.267 123.733-93.867-44.8-8.533-91.733-12.8-140.8-12.8-21.333 0-42.667 2.133-64 2.133 0 4.267 0 8.533-2.133 12.8 29.867 27.733 57.6 59.733 83.2 91.733zM512 810.667c23.467 0 46.933-2.133 70.4-6.4-29.867-12.8-59.733-25.6-89.6-40.533-2.133 14.933-2.133 29.867-2.133 44.8 6.4 2.133 14.933 2.133 21.333 2.133zM627.2 352c-23.467-32-49.067-59.733-76.8-87.467-10.667 8.533-23.467 12.8-38.4 12.8-27.733 0-51.2-17.067-59.733-42.667-85.333 21.333-166.4 53.333-238.933 98.133 19.2 72.533 51.2 140.8 91.733 200.533 4.267 0 8.533-2.133 14.933-2.133 36.267 0 64 27.733 64 64 0 8.533-2.133 17.067-4.267 25.6 25.6 25.6 51.2 46.933 78.933 68.267 23.467-128 83.2-243.2 168.533-337.067zM149.333 160c-38.4 64-61.867 136.533-64 215.467 25.6-21.333 51.2-42.667 78.933-59.733-8.533-46.933-14.933-96-14.933-145.067 0-4.267 0-8.533 0-10.667zM177.067 358.4c-32 21.333-59.733 44.8-87.467 70.4 21.333 192 170.667 345.6 360.533 375.467 0-23.467 2.133-44.8 4.267-68.267-36.267-25.6-70.4-53.333-102.4-83.2-10.667 6.4-21.333 8.533-32 8.533-36.267 0-64-27.733-64-64 0-14.933 6.4-27.733 14.933-40.533-42.667-59.733-74.667-125.867-93.867-198.4zM196.267 98.133c-2.133 23.467-4.267 46.933-4.267 72.533 0 40.533 4.267 81.067 12.8 119.467 76.8-44.8 160-78.933 247.467-98.133 0-2.133 0-2.133 2.133-4.267-74.667-49.067-160-81.067-251.733-96-4.267 2.133-4.267 4.267-6.4 6.4zM512-42.667c-104.533 0-198.4 38.4-273.067 100.267 89.6 17.067 170.667 51.2 243.2 100.267 8.533-6.4 19.2-8.533 29.867-8.533 21.333 0 38.4 10.667 51.2 25.6 25.6-2.133 51.2-4.267 76.8-4.267 68.267 0 134.4 8.533 198.4 23.467 14.933-6.4 29.867-14.933 44.8-19.2-72.533-130.133-211.2-217.6-371.2-217.6zM842.667 238.933c-59.733 29.867-115.2 70.4-162.133 117.333 23.467 36.267 42.667 74.667 59.733 113.067 2.133 0 4.267 0 6.4 0 36.267 0 64 27.733 64 64 0 25.6-14.933 46.933-36.267 57.6 8.533 38.4 12.8 76.8 12.8 117.333 91.733-78.933 149.333-194.133 149.333-324.267 0-42.667-6.4-81.067-17.067-119.467-23.467-10.667-49.067-19.2-76.8-25.6z" />
<glyph unicode="&#xe638;" glyph-name="huishouzhan" d="M896 640v-576c0-70.692-57.308-128-128-128v0h-512c-70.692 0-128 57.308-128 128v0 576h-64v64h192v64c0 35.346 28.654 64 64 64v0h384c35.346 0 64-28.654 64-64v0-64h192v-64h-64zM704 768h-384v-64h384v64zM832 640h-640v-576c0-35.346 28.654-64 64-64v0h512c35.346 0 64 28.654 64 64v0 576zM576 512h64v-384h-64v384zM384 512h64v-384h-64v384z" />
<glyph unicode="&#xe639;" glyph-name="yunweiguanli" d="M844.288 109.952c0-47.808-38.784-86.592-86.656-86.592h-519.68c-47.796 0.036-86.528 38.791-86.528 86.592v0 519.552c0 47.872 38.72 86.592 86.592 86.592h346.432l86.592 86.592h-461.888c-0.019 0-0.042 0-0.064 0-79.706 0-144.32-64.614-144.32-144.32v0-577.28c0-79.706 64.614-144.32 144.32-144.32 0.022 0 0.045 0 0.067 0h577.341c0.019 0 0.042 0 0.064 0 79.706 0 144.32 64.614 144.32 144.32v0 461.824l-86.592-86.592v-346.368zM790.784 567.744l-216.96-216.96c12.608-44.416 0-95.104-34.88-129.92-24.589-24.537-58.53-39.709-96.016-39.709-20.932 0-40.758 4.731-58.469 13.182l0.821-0.353 90.24 90.24c8.077 8.121 13.070 19.318 13.070 31.68s-4.993 23.559-13.072 31.682l0.002-0.002c-8.121 8.077-19.318 13.070-31.68 13.070s-23.559-4.993-31.682-13.072l-90.238-90.302c-23.744 50.688-15.808 112.448 26.88 153.6 34.88 34.88 85.568 45.952 129.92 34.88l215.424 215.424c-12.672 44.352 0 95.040 34.88 129.92 24.358 24.726 58.205 40.045 95.63 40.045 21.076 0 41.017-4.858 58.764-13.515l-0.795 0.35-90.24-90.24c-8.077-8.121-13.070-19.318-13.070-31.68s4.993-23.559 13.072-31.682l-0.002 0.002c8.121-8.077 19.318-13.070 31.68-13.070s23.559 4.993 31.682 13.072l90.238 90.238c23.808-50.688 15.872-112.448-26.88-153.6-33.28-34.88-83.968-45.952-128.32-33.28z" />
<glyph unicode="&#xe63a;" glyph-name="fanhui" d="M716.598 831.98l39.865-40.319-431.566-426.711-39.866 40.32zM304.923 425.076l451.62-446.54-39.866-40.319-451.62 446.54z" />
<glyph unicode="&#xe63b;" glyph-name="kongjianshezhi" d="M920.5 460.1c-7.6 40.3-36.1 66.8-69.8 66.2h-3.4c-36.6 0-66.3 29.7-66.3 66.3 0 7.8 3.6 19.1 6 24.9 15.4 35.1 3.3 78.1-28.9 100.6l-102 56.9-4.2 2c-31.7 13.7-72.7 5.4-96.4-19.2-15.1-15.6-42.2-33.7-54.6-33.7-12.5 0-39.8 18.5-54.9 34.3-23.6 24.9-62.2 34.4-97.4 19.5l-105.4-57.7-4.2-2.7c-31.7-22-43.8-65.3-28.3-100.1 1.9-4.6 6-16.7 6-24.9 0-36.6-29.7-66.3-66.3-66.3h-2.6c-34.9 0.6-63.1-25.8-70.7-66.2-0.9-4.8-8.9-48.2-8.9-84s8-79.2 8.9-84c7.5-39.6 35.3-66.2 69.2-66.2h4.1c36.6 0 66.3-29.7 66.3-66.3 0-8.2-4-20.3-5.8-24.5-15.6-35.2-3.6-78.4 28.9-101.2l99.8-56 4.1-2c10.5-4.6 21.8-6.9 33.6-6.9 24.5 0 47.8 9.9 63.7 27.3 14.8 16.1 43.5 35.8 55.8 35.8 12.8 0 40.8-19.7 56.1-36.5 15.8-17.4 39.8-27.8 64.2-27.8 11.6 0 22.6 2.2 34.3 7.3l103.2 56.9 4.2 2.7c31.6 22 43.7 65.2 28.1 100.4-1.9 4.6-5.9 16.5-5.9 24.6 0 36.6 29.7 66.3 66.3 66.3h4c34 0 61.7 26.4 69.2 65.9 0.1 0.5 9 46.3 9 84.4-0.1 35.9-8.1 79.1-9 83.9zM849.2 305.5c-0.6-3.3-1.5-5.6-2.2-7.1-76.4-0.1-138.6-62.4-138.6-138.8 0-23 8.4-45.7 12.1-53.9 1.6-3.5 0.4-8.4-3.3-11.5l-96.4-53.3c-4.7-1.6-11.9 0.9-14.3 3.5-5.6 6.2-56.5 60.3-109.8 60.3-54 0-106.9-56.8-109.1-59.2s-7.4-5.7-14.6-3.1l-93.1 52.1c-3.1 2.5-4.5 7.7-2.8 11.6 1.2 2.8 12 28.1 12 53.7 0 76.5-62.1 138.7-138.6 138.8-0.7 1.5-1.6 3.8-2.3 7.1-0.3 1.6-7.6 40.9-7.6 70.6s7.3 69 7.6 70.6c0.6 3.3 1.5 5.7 2.3 7.1 76.4 0.1 138.6 62.3 138.6 138.8 0 25-9.9 49.1-12.1 54-1.5 3.5-0.4 8.3 3.2 11.4l98.2 53.9c4.8 1.7 12.5-0.8 15-3.4 5.5-5.8 55.7-56.8 107.4-56.8 51.2 0 101.2 50 106.7 55.8 2.4 2.4 8.3 5.6 15.1 3.1l94.9-52.7c3.2-2.5 4.5-7.7 2.9-11.3l-0.7-1.8c-3.1-7.6-11.3-29.8-11.3-52.2 0-76.5 62.1-138.7 138.6-138.8 0.7-1.5 1.6-3.8 2.3-7.1 0.1-0.4 7.6-40.6 7.6-70.6-0.1-25.6-5.7-60.4-7.7-70.8zM498.7 540.1c-90.3 0-163.8-73.5-163.8-163.8s73.5-163.8 163.8-163.8c90.3 0 163.8 73.5 163.8 163.8 0 90.4-73.5 163.8-163.8 163.8zM498.7 267c-60.3 0-109.4 49.1-109.4 109.4s49.1 109.4 109.4 109.4c60.3 0 109.4-49.1 109.4-109.4s-49.1-109.4-109.4-109.4z" />
<glyph unicode="&#xe63c;" glyph-name="shoucang" d="M248.631-128c-19.958 0-39.896 8.031-55.858 20.078-27.909 24.094-43.871 64.251-39.876 100.392l43.871 236.925-167.534 160.627c-27.909 28.11-31.925 72.282-27.909 104.408 11.947 44.173 43.871 72.282 79.772 76.298l231.364 44.173 103.705 224.878c23.933 36.141 55.838 56.22 95.734 56.22s71.8-20.078 91.758-56.22l103.705-224.878 231.364-40.157c35.9-8.031 67.805-36.141 79.772-72.282s3.996-72.282-19.938-104.408l-171.53-168.659 39.896-236.925c3.976-40.157-7.991-76.298-39.896-100.392-19.938-12.047-35.9-20.078-59.834-20.078-19.938 0-39.896 8.031-43.871 12.047l-211.426 112.439-215.401-108.424c-15.962-12.047-31.925-16.063-47.867-16.063zM476.301 822.232l-123.261-255.719-271.159-53.609c-24.656-4.136-26.102-18.934-30.198-31.322 0-12.368-2.67-38.812 9.638-51.2l197.23-189.741-53.409-268.107c-4.116-16.504 0-26.564 12.308-38.952 12.328-8.232 32.868-14.657 45.197-6.425l246.523 127.88 246.503-127.88c4.116-4.116 12.328-4.116 20.56-4.116 8.212 0 13.292 6.164 21.484 14.416 12.348 8.232 19.597 22.689 19.597 39.193l-49.313 276.36 199.901 184.661c8.232 12.388 9.437 29.395 5.321 49.995-4.116 16.525-20.36 29.555-32.688 33.692l-271.119 57.525-123.261 255.739c-4.116 4.116-15.621 7.228-32.065 7.228-16.424 0-29.576-3.112-37.788-19.617z" />
<glyph unicode="&#xe63d;" glyph-name="zhankai" d="M509.002 231.875c-0.014 0-0.031 0-0.048 0-6.177 0-11.769 2.508-15.812 6.561v0l-253.454 253.454c-3.814 4.012-6.16 9.45-6.16 15.436 0 12.383 10.038 22.421 22.421 22.421 5.997 0 11.444-2.355 15.468-6.19l253.445-253.402c4.061-4.058 6.573-9.666 6.573-15.86 0-12.383-10.038-22.421-22.421-22.421-0.004 0-0.008 0-0.012 0h0.001M509.002 231.875c-0.053 0-0.116-0.001-0.179-0.001-12.335 0-22.334 9.999-22.334 22.334 0 6.223 2.545 11.852 6.651 15.902l0.003 0.002 259.451 259.407c3.973 3.641 9.289 5.872 15.127 5.872 12.383 0 22.421-10.038 22.421-22.421 0-5.838-2.231-11.154-5.887-15.144l0.015 0.017-259.364-259.407c-4.070-4.055-9.684-6.561-15.884-6.561-0.007 0-0.013 0-0.020 0h0.001" />
<glyph unicode="&#xe63e;" glyph-name="xiaoxi" d="M832 128h64v-64h-768v64h64v384c0 179.2 140.8 320 320 320s320-140.8 320-320v-384zM768 128v384c0 140.8-115.2 256-256 256s-256-115.2-256-256v-384h512zM448-64h128v-64h-128v64z" />
<glyph unicode="&#xe63f;" glyph-name="fenxianglianjie" d="M788.070 660.787c-22.426 22.528-52.326 35.226-84.173 35.84-31.744 0.614-62.157-10.957-85.402-32.563l-71.68-66.56c-8.294-7.68-8.806-20.685-1.024-28.979s20.685-8.806 28.979-1.024l71.68 66.56c32.154 29.901 81.715 28.979 112.742-2.15 31.232-31.334 31.539-82.534 0.512-114.176l-162.099-165.478c-14.336-14.643-33.485-22.835-53.965-22.938-20.48-0.205-39.834 7.782-54.272 22.221-7.987 7.987-20.992 7.987-28.979-0.102-7.987-7.987-7.987-20.992 0.102-28.979 22.118-22.016 51.507-34.099 82.637-34.099h0.819c31.539 0.205 61.030 12.698 83.046 35.226l161.997 165.478c22.63 23.142 35.021 53.658 34.816 86.016s-12.902 62.771-35.738 85.709zM449.331 200.602l-71.68-66.56c-32.154-29.901-81.715-28.979-112.742 2.15-31.232 31.334-31.539 82.534-0.512 114.176l161.997 165.376c14.336 14.643 33.485 22.835 53.965 22.938s39.834-7.782 54.272-22.221c7.987-7.987 20.992-7.987 28.979 0.102 7.987 7.987 7.987 20.992-0.102 28.979-22.323 22.221-52.019 34.406-83.456 34.099-31.539-0.205-61.030-12.698-83.046-35.226l-161.894-165.478c-22.63-23.142-35.021-53.658-34.816-86.016s12.8-62.771 35.635-85.709c22.426-22.528 52.326-35.226 84.173-35.84h2.355c30.925 0 60.314 11.571 83.046 32.666l71.68 66.56c8.294 7.68 8.806 20.685 1.024 28.979-7.578 8.294-20.582 8.704-28.877 1.024z" />
<glyph unicode="&#xe640;" glyph-name="jueseguanli" d="M800.017 322.958c3.009 4.632 4.799 10.298 4.799 16.381 0 10.653-5.487 20.025-13.79 25.443l-0.117 0.071c-33.012 21.725-71.057 39.892-111.532 52.562l-3.226 0.871c66.237 44.085 109.293 118.434 109.293 202.84 0 134.136-108.738 242.874-242.874 242.874s-242.874-108.738-242.874-242.874c0-84.406 43.056-158.755 108.404-202.282l0.89-0.558c-189.103-59.209-323.976-232.709-324.237-437.749v-0.031c0-16.767 13.592-30.359 30.359-30.359s30.359 13.592 30.359 30.359v0c0.437 218.982 178.056 396.332 397.098 396.332 80.111 0 154.681-23.723 217.069-64.526l-1.518 0.931c4.57-2.902 10.137-4.625 16.107-4.625 10.834 0 20.342 5.675 25.715 14.214l0.074 0.126zM362.237 616.836c0 100.602 81.554 182.156 182.156 182.156s182.156-81.554 182.156-182.156c0-100.602-81.554-182.156-182.156-182.156v0c-100.602 0-182.156 81.554-182.156 182.156v0zM874.094 81.298v68.005h16.394c16.767 0 30.359 13.592 30.359 30.359s-13.592 30.359-30.359 30.359v0h-16.394v47.36h16.394c16.767 0 30.359 13.592 30.359 30.359s-13.592 30.359-30.359 30.359h-16.394v60.719c0 16.767-13.592 30.359-30.359 30.359s-30.359-13.592-30.359-30.359v0-295.699c-36.021-12.91-61.326-46.756-61.326-86.513 0-50.636 41.049-91.685 91.685-91.685s91.685 41.049 91.685 91.685c0 39.757-25.305 73.603-60.686 86.312l-0.64 0.201zM843.735-35.889c-17.102 0-30.966 13.864-30.966 30.966s13.864 30.966 30.966 30.966c17.102 0 30.966-13.864 30.966-30.966v0c-0.299-16.226-13.034-29.384-29.058-30.355l-0.087-0.004z" />
<glyph unicode="&#xe641;" glyph-name="zuanqu" d="M62 834h630v-180h-630zM962 294h-630v270h630v-270zM422 384h450v90h-450v-90zM962-66h-630v270h630v-270zM422 24h450v90h-450v-90zM152 654h90v-270h-90zM242 474h90v-90h-90zM152 384h90v-360h-90zM242 114h90v-90h-90z" />
<glyph unicode="&#xe642;" glyph-name="shuaxin" d="M512-48c-17.665 0.894-31.649 15.434-31.649 33.24s13.984 32.346 31.569 33.237l0.080 0.003c201.837 0.104 365.418 163.749 365.418 365.6 0 134.569-72.704 252.157-180.975 315.626l-1.723 0.934c-10.554 5.721-17.6 16.715-17.6 29.355 0 18.38 14.9 33.28 33.28 33.28 6.52 0 12.603-1.875 17.737-5.115l-0.137 0.081c130.152-76.057 216.203-215.1 216.203-374.24 0-238.587-193.413-432-432-432-0.071 0-0.143 0-0.214 0h0.011zM329.52-3.92c-5.551 0.012-10.781 1.371-15.386 3.768l0.186-0.088c-140.375 73.257-234.557 217.75-234.557 384.24 0 238.587 193.413 432 432 432 0.084 0 0.167 0 0.25 0h-0.013c17.665-0.894 31.649-15.434 31.649-33.24s-13.984-32.346-31.569-33.237l-0.080-0.003c-201.843-0.096-365.431-163.744-365.431-365.6 0-140.792 79.584-262.996 196.22-324.081l2.011-0.959c10.728-5.67 17.914-16.756 17.914-29.52 0-18.35-14.851-33.231-33.189-33.28h-0.005zM706.72 557.28c-18.301 0.045-33.12 14.892-33.12 33.2 0 0.028 0 0.056 0 0.084v-0.004 144c0.042 18.565 14.921 33.641 33.406 33.999l0.034 0.001h144c18.778 0 34-15.222 34-34s-15.222-34-34-34v0h-111.12v-110c0-0.024 0-0.052 0-0.080 0-18.336-14.864-33.2-33.2-33.2 0 0 0 0 0 0v0zM334.72-10.4h-144c-0.487-0.025-1.056-0.040-1.629-0.040-18.336 0-33.2 14.864-33.2 33.2s14.864 33.2 33.2 33.2c0.573 0 1.143-0.015 1.709-0.043l-0.079 0.003h111.12v110.56c0 18.336 14.864 33.2 33.2 33.2s33.2-14.864 33.2-33.2v-144c-0.18-18.198-14.975-32.882-33.198-32.882-0.113 0-0.226 0.001-0.339 0.002h0.017zM334.72-10.4" />
<glyph unicode="&#xe649;" glyph-name="shanchu" d="M517.59 874.391c-100.298 0-181.702-79.514-185.166-179.34h-233.82c-25.98 0-47.236-21.099-47.236-47.236 0-25.98 21.099-47.236 47.236-47.236h52.117v-528.416c0-99.196 67.233-180.285 150.369-180.285h423.552c82.978 0 150.369 80.617 150.369 180.285v528.101h47.236c25.98 0 47.236 21.099 47.236 47.236 0 25.98-21.099 47.236-47.236 47.236h-219.806c-2.992 100.141-84.553 179.655-184.851 179.655zM420.913 695.051c3.464 51.173 45.189 90.851 96.834 90.851s93.37-39.836 96.362-90.851h-193.196zM300.933-19.791c-29.444 0-61.88 37.789-61.88 91.953v528.101h547.311v-528.574c0-54.007-32.436-91.953-61.88-91.953h-423.552v0.472zM364.387 93.733c21.571 0 39.364 21.571 39.364 48.653v277.592c0 27.082-17.635 48.653-39.364 48.653-21.571 0-39.364-21.571-39.364-48.653v-277.592c0-26.925 17.32-48.653 39.364-48.653zM506.883 93.733c21.571 0 39.364 21.571 39.364 48.653v277.592c0 27.082-17.635 48.653-39.364 48.653-21.571 0-39.364-21.571-39.364-48.653v-277.592c0-26.925 17.792-48.653 39.364-48.653zM656.779 93.733c21.571 0 39.364 21.571 39.364 48.653v277.592c0 27.082-17.635 48.653-39.364 48.653-21.571 0-39.364-21.571-39.364-48.653v-277.592c0-26.925 17.163-48.653 39.364-48.653zM656.779 93.733" />
<glyph unicode="&#xe64a;" glyph-name="xiugaixinxi" horiz-adv-x="1047" d="M511.348-76.8h-434.956v921.6h795.659v-337.92c0-14.138 11.869-25.588 26.508-25.588s26.531 11.45 26.531 25.588v363.52c-0.017 7.116-2.988 13.535-7.752 18.098l-0.009 0.009c-4.84 4.638-11.42 7.494-18.667 7.494-0.032 0-0.064 0-0.096 0h-848.693c-7.040 0-13.777-2.688-18.758-7.505-4.775-4.565-7.747-10.981-7.761-18.092v-972.803c0-6.784 2.781-13.312 7.761-18.106s11.718-7.494 18.758-7.494h461.475c14.65 0 26.519 11.45 26.519 25.6 0.012 14.138-11.869 25.6-26.519 25.6zM787.165 701.44h-308.492c-8.972 38.272-44.428 66.967-86.784 66.967s-77.812-28.695-86.784-66.967h-143.849c-9.472 0-18.223-4.887-22.97-12.812s-4.736-17.687 0-25.6c4.736-7.913 13.487-12.8 22.97-12.8h148.177c13.254-31.43 45.196-53.667 82.455-53.667s69.201 22.237 82.455 53.667h312.82c9.472 0 18.234 4.887 22.97 12.8 2.236 3.651 3.561 8.071 3.561 12.8s-1.324 9.149-3.623 12.909l0.062-0.109c-4.767 7.734-13.191 12.812-22.8 12.812-0.060 0-0.119 0-0.179-0.001h0.009zM391.901 647.761c-19.875 0.035-35.968 15.581-35.98 34.746 0 19.153 16.14 34.711 35.98 34.711 19.852 0 35.991-15.569 35.98-34.711-0.012-19.165-16.105-34.711-35.98-34.746zM813.696 481.28c0 6.784-2.793 13.3-7.761 18.106-4.85 4.639-11.439 7.494-18.695 7.494-0.022 0-0.044 0-0.066 0h-137.027c-9.53 37.516-44.591 65.466-86.365 65.466-41.786 0-76.847-27.939-86.388-65.466h-316.148c-14.65 0-26.519-11.45-26.519-25.588 0-14.15 11.881-25.6 26.519-25.6h319.488c12.847-32.233 45.196-55.191 83.049-55.191s70.156 22.97 83.025 55.191h140.358c7.040 0 13.789 2.688 18.758 7.494 4.98 4.794 7.773 11.299 7.773 18.095zM563.793 451.677c-19.875 0.023-35.98 15.569-36.003 34.746 0.023 19.165 16.14 34.7 36.003 34.711 19.852-0.023 35.945-15.558 35.98-34.711-0.023-19.165-16.128-34.711-35.98-34.746zM477.859 312.32c-10.1 36.748-44.765 63.953-85.969 63.953s-75.857-27.206-85.958-63.953h-144.675c-14.65 0-26.519-11.45-26.519-25.6 0-14.138 11.881-25.588 26.519-25.588h147.025c12.428-33.024 45.172-56.727 83.619-56.727s71.18 23.703 83.619 56.727h184.355c14.65 0 26.519 11.45 26.519 25.588 0 14.15-11.881 25.6-26.519 25.6h-182.016zM391.901 255.604c-19.863 0.023-35.968 15.569-35.98 34.746 0 19.153 16.14 34.723 35.98 34.723 19.852 0 35.991-15.569 35.98-34.723-0.012-19.177-16.105-34.723-35.98-34.746zM1047.005 333.812c-1.245 6.955-5.153 12.823-10.61 16.62l-0.084 0.055-129.257 89.716c-11.892 8.262-28.463 5.644-37.027-5.83l-244.654-328.332c-2.106-2.792-3.666-6.119-4.45-9.736l-0.030-0.166-38.109-182.784c-0.32-1.507-0.504-3.239-0.504-5.014 0-8.623 4.332-16.233 10.938-20.775l0.085-0.055c4.327-3.010 9.692-4.809 15.478-4.809 4.86 0 9.424 1.27 13.378 3.495l-0.137-0.071 167.377 93.044c3.258 1.815 6.086 4.282 8.285 7.238l244.654 328.308c3.127 4.116 5.009 9.326 5.009 14.976 0 1.455-0.125 2.881-0.364 4.268l0.021-0.148zM757.981 20.794l-111.616-62.057 25.414 121.891 225.838 303.069 86.191-59.834-225.827-303.069zM757.981 20.794" />
<glyph unicode="&#xe64b;" glyph-name="wenjianjiaguanbi" d="M64.528 662.365l-0.054 72.341c0 31.003 26.894 56.136 60.069 56.136h227.589c33.157 0 75.925-20.284 95.467-45.058l64.401-81.72-447.472-1.7zM64.474 619.54h825.766c38.288-0.086 69.285-35.152 69.285-78.377v-485.707c0.018-20.759-7.274-40.674-20.27-55.36-12.995-14.685-30.628-22.937-49.015-22.937h-756.48c-38.261 0.086-69.248 35.104-69.286 78.297v564.084z" />
<glyph unicode="&#xe64c;" glyph-name="wenjianjiadakai" d="M861.040-7.895c0-30.91-25.074-55.877-55.924-55.877h-698.703l97.848 461.131c0 30.88 24.92 55.907 55.77 55.907h642.929c30.856 0 55.829-25.027 55.829-55.907l-97.749-405.254zM218.163 495.208h628.87v54.891c0 30.88-25.076 55.906-55.877 55.906h-335.368v50.659c0 30.827-25.027 55.878-55.878 55.878h-279.543c-30.855 0-55.877-25.050-55.877-55.878v-664.559l97.747 447.176c0 30.881 25.074 55.927 55.925 55.927zM218.163 495.208" />
<glyph unicode="&#xe652;" glyph-name="bianliang" d="M208.928 736h-58.304c-7.511-2.432-13.618-7.428-17.425-13.933l-0.079-0.147c-45.087-91.217-71.463-198.6-71.463-312.145 0-36.416 2.713-72.199 7.948-107.157l-0.485 3.941c14.928-99.992 45.555-190.088 89.532-271.944l-2.172 4.424c-0.039-0.262-0.062-0.564-0.062-0.871 0-3.309 2.602-6.010 5.871-6.169l0.014-0.001h64c-49.892 109.726-78.97 237.957-78.97 372.98 0 119.053 22.607 232.827 63.761 337.261l-2.167-6.241zM920.416 728.96c0.010 0.138 0.016 0.3 0.016 0.463 0 3.382-2.535 6.172-5.808 6.574l-0.032 0.003h-69.984c40.632-98.262 64.225-212.362 64.225-331.974 0-7.042-0.082-14.065-0.244-21.068l0.019 1.042c-1.321-127.62-29.035-248.433-77.927-357.699l2.279 5.699c3.428-0.277 7.422-0.436 11.453-0.436 16.762 0 32.885 2.736 47.947 7.785l-1.064-0.309c5.824 0 11.648 0 11.648 7.040 42.874 81.653 73.677 176.691 87.015 277.243l0.473 4.357c2.309 22.274 3.625 48.127 3.625 74.287 0 118.829-27.166 231.313-75.626 331.58l1.985-4.555zM687.168 595.2c-16.387-8.727-30.021-20.581-40.537-34.871l-0.231-0.329c-19.769-25.515-39.046-54.263-56.338-84.297l-1.966-3.703c-5.824-5.856-5.824-11.712-11.68-17.6-9.556 21.764-17.617 47.297-22.923 73.826l-0.405 2.43c-10.899 34.041-39.881 59.238-75.363 64.482l-0.509 0.062c-40.832 11.744-75.808-5.856-116.64-17.6-17.395-4.755-29.969-20.418-29.969-39.018 0-2.805 0.286-5.543 0.83-8.187l-0.045 0.261c1.412 0.135 3.052 0.212 4.711 0.212 8.953 0 17.382-2.246 24.753-6.206l-0.28 0.137c46.624 17.6 69.984 0 87.456-52.8 11.648-35.2 17.504-76.256 29.184-117.344 2.669-2.037 4.374-5.219 4.374-8.8s-1.705-6.763-4.347-8.78l-0.027-0.020c-5.824-11.712-17.504-23.488-23.328-35.2-1.129-10.236-9.729-18.127-20.173-18.127-5.834 0-11.092 2.462-14.793 6.404l-0.010 0.011c-3.842 3.724-9.088 6.019-14.869 6.019-0.929 0-1.844-0.059-2.741-0.174l0.106 0.011c-6.487 1.811-13.937 2.852-21.63 2.852-26.684 0-50.443-12.524-65.721-32.014l-0.137-0.182c-8.797-14.086-14.014-31.193-14.014-49.519 0-13.935 3.016-27.165 8.431-39.073l-0.241 0.592c9.273-17.030 27.038-28.394 47.457-28.394 8.172 0 15.918 1.82 22.857 5.077l-0.33-0.139c19.422 6.529 35.449 18.852 46.456 34.892l0.2 0.308c19.619 26.875 38.995 57.572 56.313 89.546l2.151 4.342c5.824 5.888 5.824 11.744 11.68 17.6 8.503-22.434 16.544-49.936 22.612-78.171l0.716-3.973c9.223-35.053 39.055-61.081 75.462-64.518l0.346-0.026c6.209-0.684 13.41-1.075 20.701-1.075 35.183 0 68.243 9.091 96.959 25.051l-1.020-0.52c17.376 4.768 29.933 20.422 29.933 39.008 0 2.797-0.284 5.528-0.826 8.164l0.045-0.261c-11.648 0-17.504-5.856-29.152-5.856-6.528-2.636-14.097-4.165-22.024-4.165-30.051 0-54.969 21.975-59.562 50.733l-0.045 0.344c-11.648 41.056-23.328 88-35.008 134.944-1.373 2.55-2.18 5.581-2.18 8.8s0.807 6.25 2.23 8.901l-0.049-0.101c5.824 11.712 17.504 23.456 23.328 35.2 5.461 8.145 14.632 13.435 25.038 13.435 3.561 0 6.978-0.62 10.148-1.757l-0.21 0.066c5.504-3.788 12.314-6.050 19.652-6.050 1.295 0 2.573 0.070 3.831 0.208l-0.156-0.014c5.693-1.49 12.229-2.345 18.965-2.345 25.609 0 48.33 12.364 62.52 31.449l0.148 0.208c11.368 12.572 18.324 29.321 18.324 47.694 0 15.063-4.676 29.034-12.655 40.541l0.155-0.236c-9.951 15.656-27.205 25.895-46.849 25.895-10.768 0-20.818-3.076-29.319-8.398l0.232 0.135z" />
<glyph unicode="&#xe653;" glyph-name="dbd-dingbuduiqi" d="M1009.6 872.32c0-13.078-10.602-23.68-23.68-23.68h-947.84c-12.936 0.347-23.333 10.744-23.679 23.647l-0.001 0.033c0 13.078 10.602 23.68 23.68 23.68v0h947.2c0.003 0 0.005 0 0.008 0 13.207 0 23.954-10.527 24.311-23.647l0.001-0.033zM85.44-76.8v732.8c1.059 26.733 22.987 48.005 49.883 48.005 0.238 0 0.476-0.002 0.713-0.005h286.044c0.001 0 0.003 0 0.004 0 27.57 0 49.92-22.35 49.92-49.92 0-0.225-0.001-0.45-0.004-0.674v0.034-730.24c0.010-0.381 0.016-0.83 0.016-1.28 0-27.57-22.35-49.92-49.92-49.92-0.006 0-0.012 0-0.017 0h-286.079c-0.001 0-0.003 0-0.004 0-27.924 0-50.56 22.636-50.56 50.56 0 0.225 0.001 0.45 0.004 0.674v-0.034zM187.2 604.8v-631.040h183.68v631.040zM551.36 408.32c-0.003-0.192-0.004-0.418-0.004-0.644 0-27.924 22.636-50.56 50.56-50.56 0.226 0 0.453 0.001 0.678 0.004h285.406c0.001 0 0.003 0 0.004 0 27.924 0 50.56 22.636 50.56 50.56 0 0.225-0.001 0.45-0.004 0.674v-0.034 247.040c-1.061 27.085-23.275 48.64-50.524 48.64-0.013 0-0.026 0-0.038 0h-285.438c-0.19 0.003-0.415 0.004-0.64 0.004-27.924 0-50.56-22.636-50.56-50.56 0-0.001 0-0.003 0-0.004v0-244.48z" />
<glyph unicode="&#xe654;" glyph-name="dbd-shangyiyiceng" d="M0.32-88.351v408.644c0.71 21.34 18.181 38.37 39.629 38.37 0.007 0 0.015 0 0.022 0h432.305v402.249l-82.496-82.496c-6.644-5.203-15.12-8.343-24.33-8.343-21.898 0-39.649 17.752-39.649 39.649 0 9.21 3.14 17.687 8.408 24.417l-0.066-0.087 149.644 150.284c7.082 7.2 16.929 11.662 27.819 11.662s20.737-4.462 27.813-11.657l0.005-0.005 149.644-149.005c6.899-7.218 11.146-17.022 11.146-27.819s-4.246-20.6-11.16-27.834l0.014 0.015c-7.082-7.2-16.929-11.662-27.819-11.662s-20.737 4.462-27.813 11.657l-0.005 0.005-81.857 81.217v-402.249h432.946c21.184-0.341 38.309-17.244 39.008-38.306l0.002-0.065v-408.005c0-0.002 0-0.003 0-0.005 0-21.673-17.389-39.284-38.976-39.644h-944.584c-0.002 0-0.003 0-0.005 0-21.673 0-39.284 17.389-39.644 38.976v0.034zM551.574 154.022c-0.004-21.895-17.754-39.643-39.649-39.643s-39.646 17.748-39.649 39.643v0 127.901h-392.657v-329.346h865.252v327.427h-393.296v-127.901zM999.228 553.713h-377.948v-49.242h377.309c13.774 0 24.941 11.166 24.941 24.941v0c0 13.421-10.88 24.301-24.301 24.301v0zM402.569 553.713h-377.948c-13.279-0.347-23.954-11.022-24.301-24.269l-0.001-0.033c0-13.421 10.88-24.301 24.301-24.301h377.309z" />
<glyph unicode="&#xe655;" glyph-name="dbd-chuizhifenbu" d="M154.884 195.84c-0.19-0.003-0.415-0.004-0.64-0.004-27.217 0-49.28 22.063-49.28 49.28 0 0.001 0 0.003 0 0.004v0 278.4c0 0.005 0 0.011 0 0.017 0 26.863 21.777 48.64 48.64 48.64 0.45 0 0.899-0.006 1.346-0.018l-0.066 0.001h714.88c0.19 0.003 0.415 0.004 0.64 0.004 26.863 0 48.64-21.777 48.64-48.64 0-0.001 0-0.003 0-0.004v0-279.040c0.003-0.192 0.004-0.418 0.004-0.644 0-26.863-21.777-48.64-48.64-48.64-0.227 0-0.453 0.002-0.679 0.005h-714.846zM997.124 872.96c0 12.725-10.315 23.040-23.040 23.040v0h-924.16c-12.583-0.346-22.694-10.457-23.039-23.007l-0.001-0.033c-0.006-0.191-0.009-0.415-0.009-0.64 0-12.725 10.315-23.040 23.040-23.040 0.003 0 0.006 0 0.009 0h924.16c12.8 0.357 23.040 10.818 23.040 23.671 0 0.003 0 0.006 0 0.009v0zM997.124-104.96c0 12.725-10.315 23.040-23.040 23.040v0h-924.16c-12.583-0.346-22.694-10.457-23.039-23.007l-0.001-0.033c0-12.725 10.315-23.040 23.040-23.040v0h924.16c12.583 0.346 22.694 10.457 23.039 23.007l0.001 0.033z" />
<glyph unicode="&#xe65d;" glyph-name="dbd-xiayiyiceng" d="M1023.529 856.351v-408.005c-0.36-21.621-17.971-39.010-39.644-39.010-0.002 0-0.004 0-0.005 0h-432.306v-402.249l83.136 82.496c6.644 5.203 15.12 8.343 24.33 8.343 21.898 0 39.649-17.752 39.649-39.649 0-9.21-3.14-17.687-8.408-24.417l0.066 0.087-150.284-150.284c-7.082-7.2-16.929-11.662-27.819-11.662s-20.737 4.462-27.813 11.657l-0.005 0.005-150.284 149.644c-6.899 7.218-11.146 17.022-11.146 27.819s4.246 20.6 11.16 27.834l-0.014-0.015c7.082 7.2 16.929 11.662 27.819 11.662s20.737-4.462 27.813-11.657l0.005-0.005 83.136-82.496v402.889h-433.585c-21.401 0.353-38.656 17.609-39.009 38.976v408.039c0 0.002 0 0.003 0 0.005 0 21.673 17.389 39.284 38.976 39.644h944.584c21.898 0 39.649-17.752 39.649-39.649v0zM472.275 613.978c0.004 21.895 17.754 39.643 39.649 39.643s39.646-17.748 39.649-39.643v0-127.901h393.296v331.264h-865.891v-329.346h393.296v127.901zM999.228 264.168h-377.948v-49.242h377.309c13.279 0.347 23.954 11.022 24.301 24.269l0.001 0.033c0.005 0.193 0.009 0.42 0.009 0.648 0 13.199-10.523 23.941-23.638 24.292l-0.033 0.001zM402.569 264.168h-377.948c-13.279-0.347-23.954-11.022-24.301-24.269l-0.001-0.033c0-13.421 10.88-24.301 24.301-24.301v0h377.309z" />
<glyph unicode="&#xe65e;" glyph-name="dbd-biaochi" d="M41.6 896h324.48c22.698-0.36 40.96-18.845 40.96-41.595 0-0.002 0-0.003 0-0.005v0-576h576c22.478-0.354 40.606-18.482 40.96-40.926v-323.874c0-22.622-18.338-40.96-40.96-40.96v0h-941.44c-0.192-0.003-0.418-0.005-0.645-0.005-22.398 0-40.598 17.978-40.955 40.292v941.474c0 22.975 18.625 41.6 41.6 41.6v0zM206.080 291.2c-13.432 0-24.32 10.888-24.32 24.32v0c-0.005 0.193-0.008 0.42-0.008 0.648 0 13.563 10.818 24.599 24.296 24.951l0.033 0.001h118.4v53.12h-64c-13.608 0-24.64 11.032-24.64 24.64s11.032 24.64 24.64 24.64v0h64v53.12h-118.4c-13.432 0-24.32 10.888-24.32 24.32v0c0 0.002 0 0.005 0 0.008 0 13.56 10.813 24.594 24.287 24.951l0.033 0.001h118.4v53.76h-64c-0.002 0-0.005 0-0.008 0-13.56 0-24.594 10.813-24.951 24.287l-0.001 0.033c0 13.785 11.175 24.96 24.96 24.96v0h64v55.040h-118.4c-0.003 0-0.005 0-0.008 0-13.432 0-24.32 10.888-24.32 24.32 0 0.225 0.003 0.449 0.009 0.673l-0.001-0.033c0 13.432 10.888 24.32 24.32 24.32v0h118.4v64h-241.92v-862.72h858.88v241.28h-64v-117.76c0-13.608-11.032-24.64-24.64-24.64s-24.64 11.032-24.64 24.64v0 117.76h-53.76v-64c0-13.608-11.032-24.64-24.64-24.64s-24.64 11.032-24.64 24.64v0 64h-53.12v-117.76c0-13.785-11.175-24.96-24.96-24.96v0c-0.193-0.006-0.421-0.009-0.649-0.009-13.432 0-24.32 10.888-24.32 24.32 0 0.228 0.003 0.455 0.009 0.682l-0.001-0.033v117.76h-50.56v-64c0-13.432-10.888-24.32-24.32-24.32v0c-0.12-0.002-0.262-0.003-0.405-0.003-12.202 0-22.36 8.756-24.531 20.329l-0.024 0.155v64h-53.12v-117.76c0-13.785-11.175-24.96-24.96-24.96v0c-0.003 0-0.005 0-0.008 0-13.432 0-24.32 10.888-24.32 24.32 0 0.225 0.003 0.449 0.009 0.673l-0.001-0.033v121.6h-53.76c-22.975 0-41.6 18.625-41.6 41.6v0 53.76z" />
</font>
</defs>
</svg>
